<svg width="28" height="28" viewBox="0 0 28 28" fill="none" xmlns="http://www.w3.org/2000/svg">
<g clip-path="url(#clip0_850_23042)">
<path d="M27.1797 1.75H24.6641V0.820312C24.6641 0.367281 24.2968 0 23.8438 0C23.3907 0 23.0234 0.367281 23.0234 0.820312V1.75H19.7422V0.820312C19.7422 0.367281 19.3749 0 18.9219 0C18.4688 0 18.1016 0.367281 18.1016 0.820312V1.75H14.8203V0.820312C14.8203 0.367281 14.453 0 14 0C13.547 0 13.1797 0.367281 13.1797 0.820312V1.75H9.89844V0.820312C9.89844 0.367281 9.53116 0 9.07812 0C8.62509 0 8.25781 0.367281 8.25781 0.820312V1.75H4.97656V0.820312C4.97656 0.367281 4.60928 0 4.15625 0C3.70322 0 3.33594 0.367281 3.33594 0.820312V1.75H0.820312C0.367281 1.75 0 2.11728 0 2.57031V27.1797C0 27.6327 0.367281 28 0.820312 28H27.1797C27.6327 28 28 27.6327 28 27.1797V2.57031C28 2.11728 27.6327 1.75 27.1797 1.75ZM3.33594 3.39062V4.21094C3.33594 4.66397 3.70322 5.03125 4.15625 5.03125C4.60928 5.03125 4.97656 4.66397 4.97656 4.21094V3.39062H8.25781V4.21094C8.25781 4.66397 8.62509 5.03125 9.07812 5.03125C9.53116 5.03125 9.89844 4.66397 9.89844 4.21094V3.39062H13.1797V4.21094C13.1797 4.66397 13.547 5.03125 14 5.03125C14.453 5.03125 14.8203 4.66397 14.8203 4.21094V3.39062H18.1016V4.21094C18.1016 4.66397 18.4688 5.03125 18.9219 5.03125C19.3749 5.03125 19.7422 4.66397 19.7422 4.21094V3.39062H23.0234V4.21094C23.0234 4.66397 23.3907 5.03125 23.8438 5.03125C24.2968 5.03125 24.6641 4.66397 24.6641 4.21094V3.39062H26.3594V6.67188H1.64062V3.39062H3.33594ZM1.64062 26.3594V8.3125H26.3594V26.3594H1.64062Z" fill="#56CCF2"/>
<path d="M9.07812 11.5938H5.79688C5.34384 11.5938 4.97656 11.961 4.97656 12.4141V15.6953C4.97656 16.1483 5.34384 16.5156 5.79688 16.5156H9.07812C9.53116 16.5156 9.89844 16.1483 9.89844 15.6953V12.4141C9.89844 11.961 9.53116 11.5938 9.07812 11.5938ZM8.25781 14.875H6.61719V13.2344H8.25781V14.875Z" fill="#56CCF2"/>
<path d="M22.2031 11.5938H18.9219C18.4688 11.5938 18.1016 11.961 18.1016 12.4141V15.6953C18.1016 16.1483 18.4688 16.5156 18.9219 16.5156H22.2031C22.6562 16.5156 23.0234 16.1483 23.0234 15.6953V12.4141C23.0234 11.961 22.6562 11.5938 22.2031 11.5938ZM21.3828 14.875H19.7422V13.2344H21.3828V14.875Z" fill="#56CCF2"/>
<path d="M15.6406 18.1016H12.3594C11.9063 18.1016 11.5391 18.4688 11.5391 18.9219V22.2031C11.5391 22.6562 11.9063 23.0234 12.3594 23.0234H15.6406C16.0937 23.0234 16.4609 22.6562 16.4609 22.2031V18.9219C16.4609 18.4688 16.0937 18.1016 15.6406 18.1016ZM14.8203 21.3828H13.1797V19.7422H14.8203V21.3828Z" fill="#56CCF2"/>
<path d="M15.6406 11.5938H12.3594C11.9063 11.5938 11.5391 11.961 11.5391 12.4141V15.6953C11.5391 16.1483 11.9063 16.5156 12.3594 16.5156H15.6406C16.0937 16.5156 16.4609 16.1483 16.4609 15.6953V12.4141C16.4609 11.961 16.0937 11.5938 15.6406 11.5938ZM14.8203 14.875H13.1797V13.2344H14.8203V14.875Z" fill="#56CCF2"/>
<path d="M22.2031 18.1016H18.9219C18.4688 18.1016 18.1016 18.4688 18.1016 18.9219V22.2031C18.1016 22.6562 18.4688 23.0234 18.9219 23.0234H22.2031C22.6562 23.0234 23.0234 22.6562 23.0234 22.2031V18.9219C23.0234 18.4688 22.6562 18.1016 22.2031 18.1016ZM21.3828 21.3828H19.7422V19.7422H21.3828V21.3828Z" fill="#56CCF2"/>
<path d="M9.5956 18.8762C9.24407 18.5904 8.72744 18.6438 8.44164 18.9952L6.77378 21.0467L6.31703 20.6721C5.9667 20.3848 5.44985 20.436 5.16258 20.7863C4.8753 21.1366 4.92644 21.6534 5.27676 21.9407L6.37052 22.8376C6.72259 23.1263 7.24125 23.0725 7.52716 22.7208L9.71466 20.0302C10.0005 19.6786 9.94713 19.162 9.5956 18.8762Z" fill="#56CCF2"/>
</g>
<defs>
<clipPath id="clip0_850_23042">
<rect width="28" height="28" fill="white"/>
</clipPath>
</defs>
</svg>
