<svg width="16" height="16" viewBox="0 0 16 16" fill="none" xmlns="http://www.w3.org/2000/svg">
<g clip-path="url(#clip0_776_1956)">
<path d="M10.8503 9.41267L8.6195 7.73955V4.33136C8.6195 3.98867 8.3425 3.71167 7.99981 3.71167C7.65713 3.71167 7.38013 3.98867 7.38013 4.33136V8.04942C7.38013 8.24461 7.47185 8.42867 7.628 8.54517L10.1067 10.4042C10.2182 10.4879 10.3484 10.5281 10.4779 10.5281C10.6669 10.5281 10.8528 10.4432 10.9742 10.2796C11.18 10.0063 11.1242 9.6178 10.8503 9.41267Z" fill="#56CCF2"/>
<path d="M8 0C3.58853 0 0 3.58853 0 8C0 12.4115 3.58853 16 8 16C12.4115 16 16 12.4115 16 8C16 3.58853 12.4115 0 8 0ZM8 14.7607C4.27266 14.7607 1.23934 11.7273 1.23934 8C1.23934 4.27266 4.27266 1.23934 8 1.23934C11.728 1.23934 14.7607 4.27266 14.7607 8C14.7607 11.7273 11.7273 14.7607 8 14.7607Z" fill="#56CCF2"/>
</g>
<defs>
<clipPath id="clip0_776_1956">
<rect width="16" height="16" rx="5" fill="white"/>
</clipPath>
</defs>
</svg>
