<svg width="34" height="34" viewBox="0 0 34 34" fill="none" xmlns="http://www.w3.org/2000/svg">
<circle cx="17" cy="17" r="16" stroke="#56CCF2" stroke-width="2"/>
<path d="M14.9358 10.3999H18.2838L17.7258 18.6259H15.4938L14.9358 10.3999ZM16.6098 23.1439C16.1178 23.1439 15.7038 22.9879 15.3678 22.6759C15.0438 22.3519 14.8818 21.9619 14.8818 21.5059C14.8818 21.0499 15.0438 20.6719 15.3678 20.3719C15.6918 20.0599 16.1058 19.9039 16.6098 19.9039C17.1138 19.9039 17.5278 20.0599 17.8518 20.3719C18.1758 20.6719 18.3378 21.0499 18.3378 21.5059C18.3378 21.9619 18.1698 22.3519 17.8338 22.6759C17.5098 22.9879 17.1018 23.1439 16.6098 23.1439Z" fill="#56CCF2"/>
</svg>
