<svg width="171" height="45" viewBox="0 0 171 45" fill="none" xmlns="http://www.w3.org/2000/svg">
<path d="M32.8088 36.9888V41.6231C32.8088 42.5187 32.4576 43.3777 31.8325 44.011C31.2074 44.6443 30.3596 45.0001 29.4755 45.0001H15.8046C14.9205 45.0001 14.0727 44.6443 13.4475 44.011C12.8224 43.3777 12.4712 42.5187 12.4712 41.6231V36.2901C12.4712 35.8466 12.385 35.4075 12.2175 34.9978C12.05 34.5881 11.8045 34.2158 11.4949 33.9022C11.1854 33.5886 10.8179 33.3399 10.4135 33.1702C10.0091 33.0005 9.57565 32.9131 9.13791 32.9131H3.33333C2.44927 32.9131 1.60143 32.5573 0.976309 31.924C0.351189 31.2907 0 30.4318 0 29.5361L0 16.0845C0 15.1889 0.351189 14.3299 0.976309 13.6966C1.60143 13.0633 2.44927 12.7075 3.33333 12.7075H8.62067C8.75388 12.7082 8.8852 12.7396 9.00472 12.7992C9.12423 12.8588 9.22883 12.9451 9.31063 13.0516C9.39243 13.1581 9.44929 13.2821 9.47692 13.4141C9.50456 13.5461 9.50225 13.6828 9.47017 13.8138C9.30314 14.5507 9.48992 17.2053 10.176 19.2723C10.862 21.3392 12.5682 24.3669 13.5452 25.7606C14.5222 27.1544 17.2665 29.9455 18.9511 31.3629C20.6357 32.7803 23.5686 34.4178 24.982 35.0292C26.3954 35.6406 28.7032 36.1209 30.492 36.2301C30.9013 36.2584 31.3123 36.2203 31.7097 36.1173C31.8403 36.084 31.9767 36.0814 32.1084 36.1097C32.2402 36.138 32.3638 36.1964 32.4698 36.2805C32.5759 36.3646 32.6616 36.4721 32.7203 36.5949C32.7791 36.7176 32.8093 36.8524 32.8088 36.9888Z" fill="#56CCF2"/>
<path d="M45.2713 16.0117V29.3304C45.2713 30.2261 44.9201 31.085 44.295 31.7183C43.6698 32.3516 42.822 32.7074 41.9379 32.7074H36.8517C36.7125 32.7074 36.5752 32.674 36.4512 32.6099C36.3271 32.5459 36.2197 32.4531 36.1378 32.339C36.0558 32.225 36.0017 32.0929 35.9797 31.9536C35.9577 31.8143 35.9685 31.6717 36.0112 31.5375C36.1028 31.2752 36.1631 31.0028 36.1908 30.726C36.2537 29.798 35.027 28.7027 32.9886 26.976C30.9502 25.2493 29.0949 24.7344 28.7806 24.7125C28.4663 24.6907 27.2415 25.1128 26.8051 26.3501C26.5411 27.0997 25.9376 27.8421 25.4994 28.3115C25.3627 28.4603 25.18 28.5575 24.9815 28.5869C24.783 28.6164 24.5805 28.5763 24.4074 28.4734C23.3747 27.8566 21.225 26.5011 19.9642 25.1983C18.734 23.9247 17.5684 21.9651 17.0134 20.9734C16.9094 20.7883 16.8742 20.5715 16.914 20.3624C16.9539 20.1532 17.0662 19.9653 17.2307 19.8326C17.6043 19.5397 18.1054 19.2122 18.8615 18.71C20.0666 17.9094 20.503 17.5309 20.7113 16.7504C20.9197 15.9698 19.9929 14.3286 18.5077 12.3071C17.0224 10.2857 15.6251 9.35409 14.869 9.12301C14.5493 9.02476 14.1416 9.103 13.6837 9.30496C13.5496 9.36211 13.4036 9.38469 13.2587 9.37068C13.1139 9.35666 12.9748 9.30649 12.8538 9.22465C12.7328 9.1428 12.6337 9.03185 12.5654 8.9017C12.4971 8.77156 12.4617 8.6263 12.4624 8.47891V3.38429C12.4615 2.93944 12.5473 2.49878 12.7149 2.08763C12.8826 1.67648 13.1288 1.30293 13.4393 0.988459C13.7499 0.673985 14.1188 0.424775 14.5247 0.255146C14.9306 0.0855178 15.3656 -0.00118718 15.8047 1.22765e-05H29.3769C30.2609 1.22765e-05 31.1088 0.355802 31.7339 0.989113C32.359 1.62242 32.7102 2.48138 32.7102 3.37701V9.24856C32.7102 10.1442 33.0614 11.0031 33.6865 11.6365C34.3116 12.2698 35.1595 12.6256 36.0436 12.6256H41.9469C42.3847 12.6267 42.8179 12.7153 43.2218 12.8861C43.6258 13.0569 43.9926 13.3067 44.3013 13.6211C44.61 13.9355 44.8545 14.3085 45.021 14.7186C45.1874 15.1288 45.2724 15.5682 45.2713 16.0117Z" fill="#56CCF2"/>
<path d="M50.2568 32.6437C50.2568 32.23 50.8489 30.6877 52.0331 28.0166C53.2172 25.3456 54.5893 22.2822 56.1494 18.8263C57.7059 15.3693 58.7662 12.8996 59.3301 11.4173L60.0395 9.55231C59.7087 9.0471 59.3297 8.57602 58.908 8.14583C59.514 7.89755 60.16 7.76492 60.8136 7.75464C62.1701 7.75464 63.2244 8.62679 63.9763 10.3711C64.4552 11.4822 65.0904 13.9689 65.8818 17.8311C65.9265 17.9698 65.9589 18.1123 65.9788 18.2568C66.0219 18.4994 66.2422 19.6057 66.6397 21.5756C67.0372 23.5455 67.312 24.8543 67.4641 25.5021C67.6137 26.145 67.8717 27.1312 68.2381 28.4606C68.82 30.7083 69.5516 32.4532 70.4328 33.6953C69.4223 34.3018 68.5883 34.6051 67.931 34.6051C67.2737 34.6051 66.8001 34.4031 66.5104 33.9992C66.2218 33.5977 65.953 32.9766 65.704 32.136C65.455 31.2954 64.9329 28.9567 64.1379 25.12C63.659 25.8599 62.7119 26.2523 61.2967 26.2972L55.5496 26.5265C54.3211 29.8829 53.4279 32.7607 52.87 35.16C51.1291 34.4213 50.258 33.5825 50.2568 32.6437ZM61.1692 12.4635C58.6943 18.4169 57.1127 22.2876 56.4242 24.0756H63.9134C62.9029 19.0817 61.9881 15.211 61.1692 12.4635Z" fill="#504F4F"/>
<path d="M72.3399 31.6958C72.3184 31.3477 72.3076 30.7861 72.3076 30.011C72.3076 29.2359 72.6668 25.9274 73.3852 20.0856C74.1036 14.2413 74.4628 10.2287 74.4628 8.04773C74.4628 5.86675 74.3365 4.44996 74.0838 3.79736C75.2883 4.25467 76.1384 4.9297 76.6341 5.82247C77.1298 6.71524 77.3771 7.79482 77.3759 9.06119C77.3759 10.3251 77.064 13.596 76.4402 18.8738C75.8164 24.1516 75.5039 28.4031 75.5027 31.6285C75.5027 32.3272 75.5458 33.3085 75.632 34.5725C74.4478 34.4851 73.6097 34.2019 73.1176 33.7228C72.7069 33.331 72.4477 32.6553 72.3399 31.6958Z" fill="#504F4F"/>
<path d="M80.4435 31.6958C80.4219 31.3477 80.4111 30.7861 80.4111 30.011C80.4111 29.2359 80.7703 25.9274 81.4887 20.0856C82.2071 14.2413 82.5663 10.2287 82.5663 8.04773C82.5663 5.86675 82.4376 4.44996 82.1802 3.79736C83.3846 4.25345 84.2347 4.9291 84.7304 5.82429C85.2261 6.71949 85.4787 7.79906 85.4883 9.06301C85.4883 10.327 85.1764 13.5978 84.5526 18.8756C83.9288 24.1534 83.6163 28.405 83.6151 31.6303C83.6151 32.329 83.6582 33.3103 83.7444 34.5743C82.5603 34.487 81.7222 34.2037 81.2301 33.7246C80.8122 33.3316 80.55 32.6553 80.4435 31.6958Z" fill="#504F4F"/>
<path d="M94.5023 16.9214C95.89 15.8418 97.2999 15.302 98.7318 15.302C100.164 15.302 101.353 15.9401 102.3 17.2162C103.246 18.4922 103.72 20.2202 103.721 22.3999C103.744 24.6983 103.284 26.9754 102.37 29.0793C101.358 31.3476 99.8938 32.9288 97.9793 33.8228C96.9069 34.3313 95.7348 34.5869 94.5508 34.5706C92.8087 34.5706 91.281 33.8349 89.9675 32.3635C88.6541 30.8922 87.9955 28.7876 87.9919 26.0499C87.9919 23.3133 88.5732 20.9419 89.7358 18.9356C90.8984 16.9293 92.4801 15.5343 94.4808 14.7507C94.9118 14.7507 95.1273 14.9691 95.1273 15.4058C92.9973 16.8225 91.6845 19.0466 91.1888 22.0779C92.0101 19.7246 93.1147 18.0058 94.5023 16.9214ZM100.557 23.3315C100.557 21.2063 100.293 19.6804 99.7645 18.7536C99.2365 17.8269 98.4834 17.3635 97.5052 17.3635C96.527 17.3635 95.5422 17.8487 94.5508 18.8191C93.5314 19.8384 92.7358 21.0642 92.2161 22.4163C91.6486 23.8289 91.3582 25.3399 91.3612 26.865C91.3612 28.4019 91.6515 29.7319 92.2322 30.8552C92.8129 31.9784 93.6953 32.5394 94.8795 32.5382C96.5557 32.5382 97.9225 31.5357 98.9797 29.5306C100.004 27.6312 100.546 25.5033 100.557 23.3388V23.3315Z" fill="#504F4F"/>
<path d="M117.214 7.85307C120.185 7.85307 122.52 9.0412 124.219 11.4175C125.918 13.7937 126.768 16.7808 126.771 20.3785C126.771 24.043 125.791 27.2702 123.832 30.0601C122.85 31.4644 121.535 32.5952 120.007 33.348C118.469 34.148 116.765 34.567 115.036 34.5707C113.511 34.598 111.991 34.4143 110.515 34.0248C109.214 33.6609 108.272 33.2904 107.69 32.9131L106.792 32.3673C106.814 32.1926 107.053 30.5678 107.511 27.4928C108.458 21.0833 108.931 15.2724 108.929 10.0601C108.929 8.33645 108.779 7.11556 108.479 6.39746C110.264 7.00396 111.383 7.96345 111.835 9.27592C113.744 8.32614 115.537 7.85185 117.214 7.85307ZM110.531 31.7941C111.649 32.147 112.816 32.3129 113.987 32.2854C115.368 32.2786 116.724 31.9121 117.925 31.221C119.161 30.5433 120.214 29.5694 120.993 28.3844C122.582 26.0154 123.416 23.2099 123.383 20.3458C123.383 17.3606 122.725 14.9516 121.408 13.1187C120.091 11.2859 118.327 10.37 116.117 10.3713C114.632 10.3713 113.341 10.6217 112.243 11.1227C112.243 12.4752 111.958 15.8771 111.388 21.3283C110.818 26.7796 110.533 30.2682 110.531 31.7941Z" fill="#504F4F"/>
<path d="M146.174 31.3193C145.213 32.4261 144.029 33.3125 142.703 33.9193C141.276 34.583 139.722 34.9185 138.152 34.9019C136.621 34.9313 135.113 34.5233 133.8 33.7247C132.555 32.9545 131.527 31.873 130.813 30.5842C129.327 27.9241 128.585 24.8825 128.586 21.4594C128.587 18.0363 129.416 14.9886 131.072 12.3164C132.73 9.64775 134.885 7.8889 137.537 7.03979C137.904 7.12713 138.108 7.3018 138.152 7.56381C136.73 8.42497 135.477 9.5445 134.455 10.8662C133.498 12.1326 132.835 13.8447 132.469 16.0027C133.372 13.4554 134.782 11.4491 136.699 9.98375C138.616 8.51845 140.622 7.79064 142.719 7.80035C144.818 7.80035 146.604 8.7101 148.078 10.5296C149.552 12.3491 150.289 14.9819 150.291 18.4281C150.291 21.7857 149.698 24.8273 148.514 27.5529C147.926 28.9207 147.137 30.1905 146.174 31.3193ZM145.174 12.3728C144.204 10.9172 142.891 10.1894 141.233 10.1894C139.576 10.1894 138.049 10.8565 136.65 12.1908C135.215 13.5783 134.12 15.2869 133.453 17.1799C132.733 19.1343 132.364 21.2036 132.363 23.2898C132.363 26.1027 132.874 28.4141 133.897 30.2239C134.919 32.0337 136.45 32.9368 138.489 32.9332C140.147 32.9332 141.611 32.2466 142.88 30.8735C144.198 29.4156 145.165 27.6689 145.705 25.7698C146.326 23.6917 146.636 21.5309 146.625 19.3597C146.625 16.1573 146.141 13.8284 145.174 12.3728Z" fill="#504F4F"/>
<path d="M160.863 34.5707C158.469 34.5707 156.456 33.5894 154.825 31.6267C153.195 29.6641 152.377 26.8074 152.372 23.0568C152.372 20.29 152.813 17.7663 153.696 15.4859C154.535 13.265 155.972 11.3272 157.844 9.89272C159.667 8.45978 161.913 7.69063 164.22 7.70932C166.587 7.70932 168.309 8.29217 169.385 9.45786C170.462 10.6236 171.001 11.9579 171.002 13.4608C171.002 14.9661 170.625 16.1712 169.872 17.0761C169.517 17.5146 169.068 17.865 168.558 18.1003C168.049 18.3355 167.493 18.4495 166.934 18.4335C166.45 18.4165 165.972 18.3282 165.513 18.1715C166.082 17.5256 166.526 16.7768 166.821 15.9644C167.187 15.0613 167.379 14.0951 167.385 13.1187C167.408 12.2327 167.14 11.3639 166.625 10.6478C166.121 9.96126 165.319 9.61798 164.22 9.61798C162.562 9.61798 161.083 10.3106 159.782 11.6959C158.438 13.1494 157.434 14.8906 156.844 16.7905C156.188 18.8002 155.855 20.9037 155.858 23.0205C155.858 26.0299 156.429 28.2812 157.57 29.7745C158.711 31.2677 160.186 32.0173 161.997 32.0234C163.202 32.0234 164.44 31.6528 165.709 30.9116C167.01 30.1371 168.09 29.0321 168.841 27.7057C169.163 27.7072 169.477 27.8102 169.739 28.0004C170.019 28.1969 170.159 28.3916 170.159 28.5881C168.953 30.9001 167.435 32.5031 165.607 33.3971C164.135 34.1504 162.512 34.5518 160.863 34.5707Z" fill="#504F4F"/>
</svg>
