<svg width="22" height="25" viewBox="0 0 22 25" fill="none" xmlns="http://www.w3.org/2000/svg">
<path fill-rule="evenodd" clip-rule="evenodd" d="M18.003 13.3284C18.0357 17.1024 21.3434 18.35 21.3839 18.3637C21.3642 18.4516 20.8659 20.1643 19.6253 21.9033C18.5893 23.4342 17.5038 24.9309 15.7798 24.9583C14.1051 24.9964 13.5417 23.9842 11.6209 23.9842C9.68231 23.9842 9.08226 24.9309 7.47584 24.9964C5.83384 25.056 4.57936 23.3619 3.50578 21.8447C1.35961 18.7467 -0.31106 13.1144 1.92902 9.28177C3.01446 7.40207 4.99356 6.1916 7.10909 6.15936C8.75307 6.12614 10.2784 7.2565 11.2887 7.2565C12.2793 7.2565 14.1654 5.90437 16.1099 6.1066C16.9235 6.13005 19.2387 6.42412 20.7325 8.57639C20.6119 8.64771 17.9744 10.1796 18.003 13.3284ZM14.8396 4.06864C13.9381 5.11986 12.4958 5.92391 11.091 5.82035C10.9071 4.40178 11.6189 2.89334 12.4157 1.97303C13.3163 0.928644 14.8802 0.128502 16.1307 0.0737915C16.2948 1.54804 15.7036 3.0008 14.8396 4.06864Z" fill="black"/>
</svg>
