<svg width="33" height="33" viewBox="0 0 33 33" fill="none" xmlns="http://www.w3.org/2000/svg">
<g clip-path="url(#clip0_850_23027)">
<path d="M32.9508 31.7311L31.3432 26.8546C32.3216 26.388 32.9994 25.3894 32.9994 24.2352C32.9994 22.9748 32.1911 21.9003 31.0659 21.5012V10.3281L32.4636 9.63214C32.7914 9.46895 32.9989 9.1345 32.9995 8.76828C33.0001 8.40206 32.7938 8.06697 32.4665 7.90268L16.9335 0.103991C16.6605 -0.0330361 16.3388 -0.0330361 16.0659 0.103991L0.533028 7.90268C0.205735 8.06697 -0.000578857 8.40212 1.22002e-06 8.76828C0.000581297 9.13444 0.20812 9.46895 0.535928 9.63214L5.80077 12.2536V18.4345C5.80077 18.7123 5.92027 18.9766 6.12871 19.1602C6.31929 19.3279 10.8603 23.2684 16.4998 23.2684C22.1392 23.2684 26.6803 19.3279 26.8708 19.1602C27.0793 18.9766 27.1988 18.7123 27.1988 18.4345V12.2536L29.1323 11.2908V21.5011C28.007 21.9002 27.1988 22.9748 27.1988 24.2351C27.1988 25.3894 27.8766 26.3879 28.855 26.8545L27.2474 31.7311C27.0412 32.3567 27.5084 33.0007 28.1656 33.0007H32.0327C32.6913 33.0006 33.1566 32.3552 32.9508 31.7311ZM25.2652 17.9744C24.1886 18.8119 20.6043 21.3349 16.4998 21.3349C12.3946 21.3349 8.80976 18.8112 7.7343 17.9746V13.2164L16.0688 17.3664C16.2045 17.434 16.3522 17.4678 16.4998 17.4678C16.6474 17.4678 16.795 17.4341 16.9307 17.3664L25.2653 13.2164V17.9744H25.2652ZM16.4998 15.4209L3.12861 8.76312L16.4998 2.04983L29.8709 8.76312L16.4998 15.4209ZM29.5022 31.0671L30.0991 29.2565L30.696 31.0671H29.5022ZM30.0991 25.202C29.566 25.202 29.1323 24.7683 29.1323 24.2352C29.1323 23.7021 29.566 23.2684 30.0991 23.2684C30.6322 23.2684 31.0659 23.7021 31.0659 24.2352C31.0659 24.7683 30.6322 25.202 30.0991 25.202Z" fill="#56CCF2"/>
<path d="M16.4994 5.86548C14.9002 5.86548 13.5991 7.16659 13.5991 8.7658C13.5991 10.365 14.9002 11.6661 16.4994 11.6661C18.0987 11.6661 19.3998 10.365 19.3998 8.7658C19.3998 7.16659 18.0986 5.86548 16.4994 5.86548ZM16.4994 9.73259C15.9663 9.73259 15.5326 9.29889 15.5326 8.7658C15.5326 8.23271 15.9663 7.799 16.4994 7.799C17.0325 7.799 17.4662 8.23271 17.4662 8.7658C17.4662 9.29889 17.0325 9.73259 16.4994 9.73259Z" fill="#56CCF2"/>
</g>
<defs>
<clipPath id="clip0_850_23027">
<rect width="33" height="33" fill="white"/>
</clipPath>
</defs>
</svg>
