<svg width="12" height="14" viewBox="0 0 12 14" fill="none" xmlns="http://www.w3.org/2000/svg">
<g clip-path="url(#clip0_607_9318)">
<path d="M5.98008 12.8139H1.49501C1.21992 12.8139 0.99668 12.5534 0.99668 12.2325V1.7674C0.99668 1.44646 1.21995 1.18601 1.49501 1.18601H5.98008C6.25566 1.18601 6.47841 0.926139 6.47841 0.604631C6.47841 0.283123 6.25566 0.0231934 5.98008 0.0231934H1.49501C0.670758 0.0231934 0 0.805772 0 1.7674V12.2325C0 13.1941 0.670758 13.9767 1.49501 13.9767H5.98008C6.25566 13.9767 6.47841 13.7168 6.47841 13.3953C6.47841 13.0738 6.25566 12.8139 5.98008 12.8139Z" fill="#56CCF2"/>
<path d="M11.8514 6.58593L8.82145 3.09756C8.62609 2.87197 8.31016 2.8749 8.1168 3.10338C7.92344 3.33186 7.92543 3.69988 8.12179 3.92547L10.2871 6.41848H4.4849C4.20932 6.41848 3.98657 6.67835 3.98657 6.99986C3.98657 7.32137 4.20932 7.58127 4.4849 7.58127H10.2871L8.12179 10.0743C7.92545 10.2999 7.92395 10.6679 8.1168 10.8964C8.21446 11.0115 8.34304 11.0696 8.47162 11.0696C8.5982 11.0696 8.72477 11.0138 8.82145 10.9022L11.8514 7.41379C11.946 7.3045 11.9999 7.15564 11.9999 6.99984C11.9999 6.84409 11.9465 6.69583 11.8514 6.58593Z" fill="#56CCF2"/>
</g>
<defs>
<clipPath id="clip0_607_9318">
<rect width="12" height="14" fill="white"/>
</clipPath>
</defs>
</svg>
