<svg width="24" height="25" viewBox="0 0 24 25" fill="none" xmlns="http://www.w3.org/2000/svg">
<path fill-rule="evenodd" clip-rule="evenodd" d="M2.41885 24.98C2.52694 24.9371 2.63201 24.8864 2.73326 24.8281L17.1536 16.5939L13.7347 13.0328L2.41885 24.98ZM17.7918 16.23L14.2254 12.5149L17.7882 8.75342L22.6947 11.5453C23.9035 12.2326 23.2852 13.0931 22.6947 13.4304L17.7918 16.23ZM17.1502 8.3907L2.73326 0.185078C2.57657 0.0983658 2.40599 0.0423998 2.22997 0.0199585L13.7314 12.0003L17.1507 8.39053L17.1502 8.3907ZM1.38446 0.167896L13.2408 12.518L1.44139 24.975C1.09703 24.7471 0.912431 24.2533 0.909305 23.614C0.903382 22.3901 0.809601 2.96118 0.802526 1.50311C0.799071 0.805006 1.0429 0.378547 1.38446 0.167896Z" fill="black"/>
</svg>
