<svg width="14" height="14" viewBox="0 0 14 14" fill="none" xmlns="http://www.w3.org/2000/svg">
<g clip-path="url(#clip0_585_1271)">
<path d="M12.5417 2.33325H1.45832C0.6545 2.33325 0 2.98775 0 3.7916V10.2083C0 11.0121 0.6545 11.6666 1.45832 11.6666H12.5416C13.3455 11.6666 14 11.0121 14 10.2083V3.7916C14 2.98775 13.3455 2.33325 12.5417 2.33325ZM13.4167 10.2083C13.4167 10.6907 13.0241 11.0833 12.5417 11.0833H1.45832C0.975898 11.0833 0.583324 10.6907 0.583324 10.2083V3.7916C0.583324 3.30918 0.975898 2.9166 1.45832 2.9166H12.5416C13.0241 2.9166 13.4166 3.30918 13.4166 3.7916V10.2083H13.4167Z" fill="#56CCF2"/>
<path d="M13.7083 4.08325H0.291676C0.130676 4.08325 0 4.21393 0 4.37493V6.12493C0 6.28593 0.130676 6.41661 0.291676 6.41661H13.7084C13.8694 6.41661 14 6.28593 14 6.12493V4.37493C14 4.21393 13.8693 4.08325 13.7083 4.08325ZM13.4167 5.83325H0.583324V4.66658H13.4166V5.83325H13.4167Z" fill="#56CCF2"/>
<path d="M5.54168 8.16675H2.04168C1.88068 8.16675 1.75 8.29742 1.75 8.45842C1.75 8.61942 1.88068 8.75007 2.04168 8.75007H5.54168C5.70268 8.75007 5.83335 8.61939 5.83335 8.45839C5.83335 8.2974 5.70268 8.16675 5.54168 8.16675Z" fill="#56CCF2"/>
<path d="M5.54168 9.33325H2.04168C1.88068 9.33325 1.75 9.46393 1.75 9.62493C1.75 9.78593 1.88068 9.9166 2.04168 9.9166H5.54168C5.70268 9.9166 5.83335 9.78593 5.83335 9.62493C5.83332 9.46393 5.70268 9.33325 5.54168 9.33325Z" fill="#56CCF2"/>
<path d="M11.3751 7.58325H10.7917C10.3093 7.58325 9.91675 7.97583 9.91675 8.45825V9.04158C9.91675 9.524 10.3093 9.91658 10.7917 9.91658H11.3751C11.8575 9.91658 12.2501 9.524 12.2501 9.04158V8.45825C12.2501 7.97585 11.8575 7.58325 11.3751 7.58325ZM11.6667 9.0416C11.6667 9.2026 11.5361 9.33328 11.3751 9.33328H10.7917C10.6307 9.33328 10.5001 9.2026 10.5001 9.0416V8.45828C10.5001 8.29728 10.6307 8.1666 10.7917 8.1666H11.3751C11.5361 8.1666 11.6667 8.29728 11.6667 8.45828V9.0416Z" fill="#56CCF2"/>
</g>
<defs>
<clipPath id="clip0_585_1271">
<rect width="14" height="14" fill="white"/>
</clipPath>
</defs>
</svg>
