<svg width="203" height="53" viewBox="0 0 203 53" fill="none" xmlns="http://www.w3.org/2000/svg">
<g clip-path="url(#clip0_12855_56)">
<path d="M38.9485 43.5645V49.0227C38.9485 50.0775 38.5316 51.0892 37.7895 51.8351C37.0474 52.581 36.0409 53 34.9914 53H18.7621C17.7127 53 16.7061 52.581 15.964 51.8351C15.2219 51.0892 14.805 50.0775 14.805 49.0227V42.7416C14.805 42.2193 14.7027 41.7021 14.5038 41.2195C14.305 40.737 14.0135 40.2985 13.646 39.9292C13.2786 39.5599 12.8423 39.2669 12.3622 39.067C11.8822 38.8671 11.3676 38.7643 10.8479 38.7643H3.95711C2.90762 38.7643 1.90111 38.3452 1.15901 37.5993C0.416908 36.8534 0 35.8418 0 34.7869L0 18.9439C0 17.889 0.416908 16.8774 1.15901 16.1315C1.90111 15.3856 2.90762 14.9666 3.95711 14.9666H10.2339C10.392 14.9674 10.5479 15.0043 10.6898 15.0745C10.8317 15.1447 10.9559 15.2464 11.053 15.3718C11.1501 15.4973 11.2176 15.6433 11.2504 15.7988C11.2832 15.9543 11.2804 16.1152 11.2424 16.2695C11.0441 17.1374 11.2658 20.264 12.0803 22.6984C12.8947 25.1328 14.9202 28.6987 16.08 30.3402C17.2399 31.9818 20.4976 35.2691 22.4975 36.9384C24.4974 38.6078 27.979 40.5365 29.657 41.2565C31.3349 41.9766 34.0746 42.5423 36.1981 42.6709C36.684 42.7043 37.172 42.6594 37.6437 42.538C37.7987 42.4988 37.9606 42.4958 38.117 42.5291C38.2734 42.5624 38.4202 42.6312 38.5461 42.7303C38.672 42.8293 38.7737 42.9559 38.8434 43.1005C38.9132 43.2451 38.9491 43.4038 38.9485 43.5645Z" fill="#56CCF2"/>
<path d="M53.743 18.8582V34.5447C53.743 35.5996 53.3261 36.6112 52.584 37.3571C51.8419 38.103 50.8353 38.5221 49.7859 38.5221H43.7479C43.5826 38.522 43.4196 38.4827 43.2723 38.4073C43.125 38.3318 42.9976 38.2225 42.9003 38.0882C42.803 37.9539 42.7387 37.7983 42.7126 37.6343C42.6865 37.4702 42.6993 37.3023 42.7501 37.1442C42.8588 36.8353 42.9304 36.5144 42.9633 36.1884C43.0379 35.0955 41.5817 33.8054 39.1618 31.7717C36.7419 29.738 34.5395 29.1316 34.1664 29.1059C33.7933 29.0802 32.3392 29.5773 31.8211 31.0345C31.5077 31.9174 30.7913 32.7918 30.2711 33.3447C30.1088 33.5199 29.892 33.6344 29.6563 33.669C29.4206 33.7037 29.1802 33.6566 28.9748 33.5354C27.7489 32.8089 25.1968 31.2124 23.7001 29.678C22.2396 28.178 20.8559 25.87 20.1971 24.7021C20.0736 24.484 20.0318 24.2287 20.0791 23.9823C20.1264 23.7359 20.2597 23.5147 20.4551 23.3584C20.8985 23.0134 21.4934 22.6277 22.391 22.0362C23.8216 21.0933 24.3397 20.6476 24.587 19.7282C24.8343 18.8089 23.7342 16.8759 21.971 14.4951C20.2078 12.1142 18.549 11.017 17.6514 10.7449C17.2719 10.6292 16.7879 10.7213 16.2442 10.9592C16.085 11.0265 15.9117 11.0531 15.7398 11.0366C15.5679 11.0201 15.4027 10.961 15.2591 10.8646C15.1154 10.7682 14.9978 10.6375 14.9167 10.4842C14.8356 10.331 14.7936 10.1599 14.7944 9.98627V3.98594C14.7933 3.46201 14.8952 2.94301 15.0942 2.45876C15.2933 1.97452 15.5855 1.53457 15.9542 1.16419C16.3229 0.793804 16.7608 0.500291 17.2426 0.300506C17.7245 0.100721 18.2409 -0.00139824 18.7622 1.4459e-05H34.8742C35.9237 1.4459e-05 36.9302 0.419056 37.6723 1.16496C38.4144 1.91085 38.8313 2.92251 38.8313 3.97737V10.8927C38.8313 11.9476 39.2482 12.9593 39.9903 13.7052C40.7324 14.4511 41.7389 14.8701 42.7884 14.8701H49.7965C50.3162 14.8715 50.8305 14.9758 51.31 15.177C51.7896 15.3781 52.225 15.6723 52.5915 16.0426C52.958 16.4129 53.2483 16.8522 53.4458 17.3353C53.6434 17.8184 53.7444 18.3359 53.743 18.8582Z" fill="#56CCF2"/>
<path d="M59.6616 38.4471C59.6616 37.9599 60.3645 36.1434 61.7702 32.9975C63.176 29.8516 64.8049 26.2436 66.6569 22.1734C68.5047 18.1017 69.7633 15.193 70.4328 13.4472L71.275 11.2506C70.8822 10.6556 70.4324 10.1008 69.9318 9.5941C70.6511 9.30168 71.418 9.14547 72.1939 9.13336C73.8043 9.13336 75.0558 10.1606 75.9484 12.215C76.517 13.5236 77.271 16.4523 78.2106 21.0011C78.2636 21.1645 78.3021 21.3324 78.3257 21.5026C78.3769 21.7883 78.6384 23.0913 79.1103 25.4114C79.5822 27.7315 79.9084 29.273 80.0889 30.0359C80.2666 30.7931 80.5729 31.9546 81.0078 33.5204C81.6986 36.1677 82.5671 38.2228 83.6132 39.6857C82.4136 40.4001 81.4236 40.7572 80.6432 40.7572C79.8629 40.7572 79.3008 40.5193 78.9568 40.0436C78.6142 39.5707 78.2951 38.8393 77.9995 37.8492C77.7038 36.8591 77.0841 34.1047 76.1403 29.5859C75.5718 30.4574 74.4475 30.9195 72.7674 30.9724L65.9448 31.2424C64.4865 35.1955 63.4261 38.585 62.7638 41.4108C60.6971 40.5408 59.663 39.5529 59.6616 38.4471ZM72.616 14.6794C69.678 21.6912 67.8004 26.25 66.9831 28.3558H75.8738C74.6742 22.4741 73.5883 17.9153 72.616 14.6794Z" fill="white"/>
<path d="M85.8772 37.3306C85.8517 36.9206 85.8389 36.2591 85.8389 35.3462C85.8389 34.4333 86.2653 30.5367 87.1181 23.6563C87.9709 16.7731 88.3973 12.0471 88.3973 9.4784C88.3973 6.90969 88.2474 5.24102 87.9475 4.47241C89.3774 5.01101 90.3866 5.80606 90.975 6.85754C91.5635 7.90903 91.857 9.18052 91.8556 10.672C91.8556 12.1607 91.4853 16.013 90.7448 22.2291C90.0042 28.4451 89.6332 33.4525 89.6318 37.2513C89.6318 38.0742 89.683 39.23 89.7853 40.7187C88.3796 40.6158 87.3846 40.2822 86.8004 39.7179C86.3129 39.2564 86.0052 38.4607 85.8772 37.3306Z" fill="white"/>
<path d="M95.4971 37.3306C95.4715 36.9206 95.4587 36.2591 95.4587 35.3462C95.4587 34.4333 95.8852 30.5367 96.738 23.6563C97.5908 16.7731 98.0172 12.0471 98.0172 9.4784C98.0172 6.90969 97.8644 5.24102 97.5588 4.47241C98.9887 5.00958 99.9979 5.80534 100.586 6.85968C101.175 7.91403 101.475 9.18552 101.486 10.6742C101.486 12.1628 101.116 16.0152 100.375 22.2312C99.6347 28.4473 99.2637 33.4547 99.2623 37.2535C99.2623 38.0764 99.3135 39.2321 99.4158 40.7208C98.0101 40.6179 97.0151 40.2843 96.431 39.72C95.9349 39.2571 95.6236 38.4607 95.4971 37.3306Z" fill="white"/>
<path d="M112.187 19.9297C113.834 18.6582 115.508 18.0224 117.208 18.0224C118.908 18.0224 120.32 18.7739 121.444 20.2768C122.567 21.7798 123.129 23.8149 123.131 26.3822C123.159 29.0892 122.612 31.771 121.528 34.249C120.325 36.9206 118.587 38.7828 116.315 39.8357C115.042 40.4346 113.65 40.7358 112.245 40.7165C110.176 40.7165 108.363 39.85 106.804 38.1171C105.244 36.3841 104.463 33.9054 104.458 30.681C104.458 27.4579 105.148 24.6649 106.528 22.3019C107.909 19.939 109.786 18.296 112.161 17.3731C112.673 17.3731 112.929 17.6303 112.929 18.1446C110.4 19.8132 108.842 22.4327 108.253 26.0029C109.228 23.2313 110.54 21.2069 112.187 19.9297ZM119.374 27.4794C119.374 24.9764 119.061 23.1791 118.434 22.0876C117.807 20.9962 116.913 20.4504 115.752 20.4504C114.591 20.4504 113.421 21.0219 112.245 22.1648C111.034 23.3653 110.09 24.8089 109.473 26.4014C108.799 28.0651 108.454 29.8448 108.458 31.641C108.458 33.4511 108.803 35.0176 109.492 36.3406C110.181 37.6635 111.229 38.3242 112.635 38.3228C114.625 38.3228 116.247 37.142 117.502 34.7805C118.719 32.5435 119.362 30.0373 119.374 27.4879V27.4794Z" fill="white"/>
<path d="M139.149 9.24905C142.675 9.24905 145.447 10.6484 147.464 13.4471C149.481 16.2459 150.491 19.7639 150.494 24.0013C150.494 28.3172 149.331 32.1181 147.006 35.404C145.84 37.058 144.278 38.3898 142.464 39.2764C140.638 40.2186 138.616 40.7122 136.563 40.7165C134.753 40.7486 132.948 40.5323 131.196 40.0736C129.651 39.645 128.533 39.2085 127.843 38.7642L126.777 38.1213C126.802 37.9156 127.086 36.0019 127.629 32.3803C128.754 24.8313 129.315 17.9874 129.314 11.8485C129.314 9.81836 129.135 8.38043 128.779 7.53467C130.898 8.24899 132.226 9.37905 132.763 10.9249C135.029 9.80622 137.158 9.24762 139.149 9.24905ZM131.216 37.4463C132.543 37.8619 133.928 38.0573 135.318 38.0249C136.957 38.0169 138.567 37.5852 139.993 36.7712C141.46 35.9731 142.711 34.8261 143.635 33.4304C145.521 30.6402 146.512 27.336 146.473 23.9627C146.473 20.4468 145.691 17.6095 144.127 15.4508C142.564 13.2921 140.47 12.2135 137.846 12.2149C136.084 12.2149 134.551 12.5099 133.247 13.1C133.247 14.6929 132.909 18.6996 132.233 25.1199C131.556 31.5403 131.217 35.649 131.216 37.4463Z" fill="white"/>
<path d="M173.528 36.887C172.387 38.1907 170.982 39.2346 169.407 39.9493C167.713 40.7309 165.868 41.1261 164.005 41.1065C162.187 41.1412 160.397 40.6607 158.839 39.72C157.361 38.8129 156.14 37.5392 155.293 36.0213C153.529 32.8882 152.648 29.3059 152.649 25.2743C152.651 21.2426 153.634 17.6531 155.6 14.5058C157.569 11.3628 160.127 9.29125 163.275 8.2912C163.71 8.39406 163.953 8.59979 164.005 8.90838C162.316 9.92263 160.829 11.2412 159.617 12.7979C158.48 14.2894 157.694 16.3059 157.259 18.8475C158.33 15.8473 160.004 13.4843 162.28 11.7585C164.555 10.0327 166.938 9.17553 169.426 9.18696C171.918 9.18696 174.039 10.2584 175.788 12.4014C177.538 14.5444 178.414 17.6453 178.415 21.7041C178.415 25.6586 177.712 29.2409 176.307 32.4511C175.608 34.062 174.672 35.5576 173.528 36.887ZM172.341 14.5723C171.19 12.8579 169.63 12.0007 167.663 12.0007C165.696 12.0007 163.882 12.7864 162.222 14.358C160.518 15.9921 159.219 18.0045 158.427 20.234C157.572 22.5359 157.134 24.973 157.133 27.4301C157.133 30.7431 157.74 33.4654 158.954 35.597C160.168 37.7285 161.985 38.7921 164.405 38.7878C166.374 38.7878 168.112 37.9792 169.618 36.362C171.182 34.645 172.33 32.5877 172.972 30.351C173.709 27.9034 174.077 25.3585 174.064 22.8013C174.064 19.0296 173.489 16.2866 172.341 14.5723Z" fill="white"/>
<path d="M190.967 40.7165C188.124 40.7165 185.735 39.5607 183.799 37.2492C181.863 34.9376 180.892 31.5732 180.886 27.1558C180.886 23.897 181.41 20.9247 182.458 18.2389C183.454 15.6231 185.16 13.3408 187.383 11.6514C189.546 9.96368 192.213 9.05778 194.951 9.0798C197.762 9.0798 199.805 9.76626 201.083 11.1392C202.361 12.5121 203.001 14.0836 203.002 15.8537C203.002 17.6267 202.555 19.046 201.661 20.1118C201.24 20.6283 200.706 21.0409 200.102 21.318C199.497 21.5951 198.837 21.7294 198.173 21.7105C197.599 21.6905 197.031 21.5865 196.487 21.4019C197.162 20.6412 197.688 19.7593 198.039 18.8025C198.474 17.7388 198.701 16.6009 198.708 15.4509C198.735 14.4073 198.418 13.3841 197.806 12.5407C197.208 11.7321 196.256 11.3278 194.951 11.3278C192.983 11.3278 191.227 12.1435 189.683 13.7751C188.088 15.487 186.895 17.5377 186.195 19.7754C185.416 22.1424 185.021 24.6198 185.025 27.1129C185.025 30.6574 185.702 33.309 187.056 35.0676C188.411 36.8263 190.163 37.7092 192.312 37.7163C193.743 37.7163 195.212 37.2799 196.719 36.407C198.264 35.4948 199.546 34.1933 200.437 32.6311C200.82 32.6329 201.192 32.7542 201.503 32.9782C201.836 33.2097 202.002 33.439 202.002 33.6704C200.569 36.3934 198.768 38.2814 196.597 39.3343C194.85 40.2215 192.924 40.6943 190.967 40.7165Z" fill="white"/>
</g>
<defs>
<clipPath id="clip0_12855_56">
<rect width="203" height="53" fill="white"/>
</clipPath>
</defs>
</svg>
