<svg width="186" height="299" viewBox="0 0 186 299" fill="none" xmlns="http://www.w3.org/2000/svg">
<path d="Mnan nanL170.338 41.4508C171.554 43.2223 172.217 45.3149 172.244 47.4636C172.27 49.6123 171.658 51.7205 170.486 53.5213C169.313 55.322 167.633 56.7345 165.658 57.5797C163.682 58.425 161.501 58.6651 159.389 58.2696C157.277 57.8741 155.33 56.8609 153.794 55.3581C152.258 53.8553 151.203 51.9306 150.761 49.8276C150.32 47.7246 150.512 45.5379 151.314 43.5443C152.116 41.5507 153.491 39.8398 155.266 38.6283C157.639 37.006 160.56 36.3921 163.386 36.9213C166.212 37.4505 168.712 39.0795 170.338 41.4508Lnan nanLnan nanZ" stroke="white" stroke-width="0.71" stroke-miterlimit="10"/>
<path d="Mnan nanL10.0516 74.5514C8.91993 72.934 8.29334 71.0172 8.25107 69.0435C8.20879 67.0698 8.75273 65.128 9.81408 63.4635C10.8754 61.799 12.4065 60.4868 14.2136 59.6927C16.0208 58.8986 18.0228 58.6583 19.9665 59.0023C21.9102 59.3463 23.7082 60.259 25.1332 61.6251C26.5581 62.9913 27.5459 64.7493 27.9717 66.677C28.3975 68.6046 28.2421 70.6152 27.5252 72.4546C26.8083 74.2939 25.562 75.8792 23.9441 77.0101C21.7756 78.5258 19.094 79.1183 16.4889 78.6572C13.8838 78.1962 11.5683 76.7194 10.0516 74.5514Lnan nanLnan nanZ" stroke="white" stroke-width="0.71" stroke-miterlimit="10"/>
<path opacity="0.38" d="M-nan -nanL6.19004 67.5395C5.66902 66.7959 5.38024 65.9144 5.36024 65.0066C5.34025 64.0988 5.58993 63.2055 6.07769 62.4396C6.56546 61.6738 7.2694 61.0699 8.10044 60.7042C8.93149 60.3386 9.85229 60.2277 10.7464 60.3856C11.6404 60.5435 12.4676 60.963 13.1232 61.5912C13.7788 62.2193 14.2334 63.0279 14.4294 63.9144C14.6254 64.801 14.5541 65.7259 14.2245 66.5719C13.8949 67.418 13.3217 68.1472 12.5776 68.6674C12.0842 69.0131 11.5276 69.2582 10.9395 69.3887C10.3513 69.5191 9.74329 69.5323 9.15006 69.4275C8.55683 69.3228 7.99006 69.1021 7.48216 68.7781C6.97426 68.4542 6.53519 68.0333 6.19004 67.5395L-nan -nanZ" fill="#FBFFFF"/>
<path opacity="0.26" d="M149.18 95.6085C150.443 97.4524 151.131 99.6295 151.156 101.864C151.182 104.099 150.545 106.292 149.325 108.164C148.105 110.037 146.357 111.506 144.302 112.385C142.248 113.264 139.978 113.514 137.782 113.103C135.585 112.692 133.559 111.639 131.961 110.077C130.363 108.515 129.263 106.514 128.802 104.327C128.341 102.14 128.539 99.8653 129.37 97.7907C130.202 95.7161 131.63 93.9347 133.473 92.6717C135.946 90.9796 138.989 90.3385 141.934 90.8891C144.879 91.4398 147.485 93.1373 149.18 95.6085Z" stroke="#FBFFFF" stroke-width="1.13" stroke-miterlimit="10"/>
<path d="M173.581 94.8237H170.38C170.305 94.8217 170.231 94.8049 170.163 94.7742C170.095 94.7435 170.033 94.6996 169.982 94.645C169.931 94.5903 169.891 94.5261 169.864 94.456C169.838 94.3858 169.826 94.3112 169.829 94.2363V90.8265C169.833 90.6752 169.778 90.5282 169.675 90.4174C169.572 90.3066 169.429 90.2406 169.278 90.2339L-nan -nanL169.278 90.2339C169.203 90.2366 169.129 90.254 169.061 90.2853C168.992 90.3165 168.931 90.3609 168.88 90.416C168.828 90.471 168.789 90.5356 168.762 90.606C168.736 90.6764 168.724 90.7514 168.727 90.8265V94.2363C168.729 94.3114 168.716 94.3862 168.69 94.4564C168.663 94.5265 168.622 94.5907 168.571 94.6453C168.519 94.6998 168.457 94.7437 168.389 94.7743C168.32 94.8049 168.246 94.8217 168.171 94.8237H164.985C164.91 94.8264 164.836 94.8439 164.768 94.8751C164.699 94.9063 164.638 94.9507 164.587 95.0058C164.535 95.0608 164.496 95.1254 164.469 95.1958C164.443 95.2663 164.431 95.3412 164.434 95.4163L-nan -nanL164.434 95.4163C164.43 95.5671 164.485 95.7134 164.589 95.8234C164.692 95.9335 164.834 95.9982 164.985 96.0037H168.181C168.256 96.0057 168.33 96.0225 168.399 96.0531C168.467 96.0837 168.529 96.1275 168.581 96.1821C168.633 96.2366 168.673 96.3008 168.7 96.371C168.727 96.4412 168.739 96.5159 168.737 96.591V100.022C168.733 100.172 168.789 100.319 168.892 100.429C168.995 100.539 169.138 100.604 169.288 100.609C169.439 100.604 169.582 100.539 169.685 100.429C169.788 100.319 169.843 100.172 169.839 100.022V96.6066C169.835 96.4558 169.891 96.3095 169.994 96.1995C170.097 96.0895 170.239 96.0247 170.39 96.0193H173.592C173.742 96.0138 173.885 95.949 173.988 95.839C174.091 95.729 174.147 95.5827 174.143 95.4319C174.147 95.3548 174.136 95.2777 174.109 95.2051C174.083 95.1325 174.043 95.0659 173.991 95.0092C173.938 94.9524 173.875 94.9068 173.805 94.875C173.734 94.8431 173.658 94.8257 173.581 94.8237Z" fill="#FBFFFF"/>
<path d="M-nan -nanL184.215 108.338H178.982C178.863 108.338 178.745 108.315 178.635 108.27C178.526 108.224 178.426 108.158 178.342 108.074C178.258 107.99 178.191 107.89 178.146 107.78C178.101 107.67 178.077 107.553 178.077 107.434V102.215C178.077 101.975 177.982 101.745 177.812 101.576C177.643 101.406 177.413 101.311 177.173 101.311C177.054 101.311 176.937 101.334 176.828 101.38C176.718 101.425 176.619 101.492 176.535 101.576C176.452 101.66 176.386 101.76 176.341 101.87C176.296 101.979 176.273 102.097 176.274 102.215V107.455C176.268 107.689 176.172 107.912 176.005 108.077C175.839 108.242 175.614 108.336 175.38 108.338H170.13C170.012 108.338 169.894 108.361 169.785 108.405C169.675 108.45 169.575 108.516 169.491 108.6C169.407 108.684 169.341 108.783 169.295 108.892C169.249 109.002 169.226 109.119 169.226 109.238L-nan -nanL169.226 109.238C169.226 109.478 169.321 109.708 169.491 109.877C169.661 110.047 169.891 110.142 170.13 110.142H175.38C175.62 110.142 175.85 110.237 176.019 110.407C176.189 110.577 176.284 110.807 176.284 111.047V116.286C176.283 116.405 176.306 116.522 176.351 116.632C176.396 116.742 176.462 116.841 176.546 116.925C176.629 117.009 176.729 117.076 176.838 117.122C176.947 117.167 177.065 117.191 177.183 117.191L-nan -nanL177.183 117.191C177.423 117.191 177.653 117.095 177.823 116.926C177.992 116.756 178.088 116.526 178.088 116.286V111.067C178.088 110.828 178.183 110.597 178.352 110.428C178.522 110.258 178.752 110.163 178.992 110.163H184.215C184.455 110.163 184.685 110.068 184.855 109.898C185.024 109.728 185.12 109.498 185.12 109.259L-nan -nanL185.12 109.259C185.122 109.138 185.101 109.019 185.057 108.907C185.012 108.795 184.946 108.693 184.862 108.607C184.778 108.522 184.677 108.454 184.566 108.407C184.455 108.361 184.336 108.338 184.215 108.338L-nan -nanZ" fill="#FBFFFF"/>
<path d="M-nan -nanL15.8674 40.8427H19.3133C19.3938 40.8454 19.4731 40.8639 19.5465 40.8973C19.6198 40.9306 19.6859 40.9781 19.741 41.037C19.796 41.0958 19.8389 41.165 19.8671 41.2405C19.8954 41.316 19.9086 41.3963 19.9058 41.4769V45.1518C19.903 45.2324 19.9161 45.3127 19.9444 45.3882C19.9727 45.4637 20.0156 45.5328 20.0706 45.5917C20.1256 45.6506 20.1917 45.6981 20.2651 45.7314C20.3385 45.7648 20.4177 45.7833 20.4983 45.786L-nan -nanL20.4983 45.786C20.6614 45.7806 20.8158 45.7108 20.9278 45.5921C21.0397 45.4733 21.1002 45.315 21.096 45.1518V41.4769C21.0932 41.3963 21.1063 41.316 21.1346 41.2405C21.1629 41.165 21.2058 41.0958 21.2608 41.037C21.3158 40.9781 21.3819 40.9306 21.4553 40.8973C21.5287 40.8639 21.6079 40.8454 21.6885 40.8427H25.1343C25.2149 40.84 25.2941 40.8215 25.3675 40.7882C25.4409 40.7548 25.507 40.7073 25.562 40.6484C25.617 40.5896 25.6599 40.5204 25.6882 40.4449C25.7165 40.3694 25.7296 40.2891 25.7268 40.2085L-nan -nanL25.7268 40.2085C25.7296 40.128 25.7165 40.0477 25.6882 39.9722C25.6599 39.8967 25.617 39.8275 25.562 39.7686C25.507 39.7098 25.4409 39.6623 25.3675 39.6289C25.2941 39.5956 25.2149 39.5771 25.1343 39.5744H21.6885C21.5267 39.569 21.3737 39.4998 21.2627 39.382C21.1517 39.2642 21.0918 39.1073 21.096 38.9454V35.2653C21.1002 35.1021 21.0397 34.9438 20.9278 34.825C20.8158 34.7062 20.6614 34.6365 20.4983 34.6311L-nan -nanL20.4983 34.6311C20.4177 34.6338 20.3385 34.6523 20.2651 34.6857C20.1917 34.719 20.1256 34.7665 20.0706 34.8254C20.0156 34.8843 19.9727 34.9534 19.9444 35.0289C19.9161 35.1044 19.903 35.1847 19.9058 35.2653V38.9454C19.91 39.1073 19.8501 39.2642 19.7391 39.382C19.6281 39.4998 19.475 39.569 19.3133 39.5744H15.8674C15.7043 39.5798 15.5499 39.6495 15.438 39.7683C15.326 39.8871 15.2655 40.0454 15.2697 40.2085L-nan -nanL15.2697 40.2085C15.2655 40.3717 15.326 40.53 15.438 40.6488C15.5499 40.7676 15.7043 40.8373 15.8674 40.8427L-nan -nanZ" fill="#92D5E4"/>
<path d="M-nan -nanL0.977104 25.0043H6.61624C6.74431 25.0043 6.87112 25.0296 6.98937 25.0788C7.10763 25.1279 7.215 25.2 7.30532 25.2908C7.39564 25.3816 7.46712 25.4894 7.51566 25.6079C7.56419 25.7265 7.58883 25.8534 7.58814 25.9815V31.6213C7.58811 31.8764 7.68836 32.1213 7.86727 32.3032C8.04618 32.485 8.2894 32.5892 8.54446 32.5933L-nan -nanL8.54446 32.5933C8.80222 32.5933 9.04943 32.4909 9.2317 32.3086C9.41397 32.1264 9.51636 31.8791 9.51636 31.6213V25.9815C9.51636 25.7232 9.61859 25.4754 9.80071 25.2923C9.98283 25.1092 10.23 25.0057 10.4883 25.0043H16.1534C16.4112 25.0043 16.6584 24.9019 16.8406 24.7196C17.0229 24.5373 17.1253 24.2901 17.1253 24.0323C17.1253 23.7745 17.0229 23.5272 16.8406 23.3449C16.6584 23.1626 16.4112 23.0602 16.1534 23.0602H10.5091C10.2513 23.0602 10.0041 22.9578 9.82182 22.7755C9.63955 22.5932 9.53715 22.346 9.53715 22.0882V16.4432C9.53718 16.3138 9.51137 16.1857 9.46123 16.0664C9.4111 15.947 9.33764 15.839 9.24518 15.7484C9.15271 15.6579 9.0431 15.5867 8.92278 15.5391C8.80245 15.4915 8.67383 15.4684 8.54446 15.4712L-nan -nanL8.54446 15.4712C8.28621 15.4712 8.03847 15.5734 7.85537 15.7556C7.67228 15.9377 7.56873 16.1849 7.56735 16.4432V22.0882C7.56735 22.346 7.46496 22.5932 7.28269 22.7755C7.10042 22.9578 6.85321 23.0602 6.59545 23.0602H0.977104C0.718858 23.0602 0.471112 23.1625 0.288018 23.3446C0.104925 23.5268 0.00137365 23.774 0 24.0323C-1.83112e-06 24.1603 0.0253092 24.2872 0.0744767 24.4054C0.123644 24.5237 0.195699 24.6311 0.2865 24.7214C0.377301 24.8118 0.485058 24.8832 0.603575 24.9318C0.722093 24.9803 0.849035 25.005 0.977104 25.0043L-nan -nanZ" fill="#92D5E4"/>
<path opacity="0.38" d="M150.993 137.666L149.881 136.797C149.569 136.554 149.307 136.252 149.112 135.907C148.917 135.563 148.791 135.183 148.743 134.79C148.695 134.397 148.725 133.998 148.831 133.616C148.937 133.235 149.117 132.878 149.361 132.566L157.407 122.217C158.011 121.444 158.897 120.941 159.871 120.818C160.844 120.695 161.827 120.963 162.604 121.562L-nan -nanL162.604 121.562C162.99 121.862 163.314 122.235 163.555 122.66C163.797 123.085 163.953 123.553 164.014 124.038C164.075 124.524 164.039 125.016 163.91 125.487C163.78 125.959 163.559 126.4 163.259 126.786L155.229 137.135C154.738 137.767 154.015 138.178 153.221 138.277C152.427 138.377 151.626 138.157 150.993 137.666Z" fill="#FBFFFF"/>
<path d="M153.772 126.914C153.766 126.905 153.755 126.905 153.748 126.914L149.871 131.901C149.251 132.677 148.958 133.666 149.055 134.655C149.152 135.644 149.631 136.556 150.391 137.198C150.776 137.507 151.218 137.737 151.693 137.873C152.168 138.01 152.665 138.05 153.155 137.993C153.646 137.935 154.12 137.781 154.55 137.538C154.98 137.295 155.358 136.969 155.661 136.579L155.71 136.515C157.876 133.731 157.375 129.719 154.592 127.552L153.779 126.919C153.776 126.917 153.775 126.917 153.772 126.914Z" fill="#FBFFFF"/>
<path d="M-nan -nanL16.3405 111.977C16.2342 111.973 16.1306 111.943 16.0391 111.889C14.6082 111.157 13.2944 110.217 12.1411 109.097C11.5457 108.517 11.0774 107.818 10.7661 107.047C10.4547 106.276 10.307 105.448 10.3324 104.617C10.4727 102.964 11.7357 101.363 13.3884 101.191C14.1767 101.135 14.957 101.38 15.5716 101.877C15.6738 101.959 15.7701 102.048 15.8602 102.142C16.1708 102.465 17.4221 102.555 17.7769 102.281C18.2959 101.88 18.9292 101.655 19.5849 101.639C20.2405 101.622 20.8842 101.816 21.4223 102.191C21.9605 102.565 22.3651 103.102 22.5773 103.723C22.8045 104.538 22.7755 105.404 22.4942 106.202C21.6314 108.858 19.1471 110.745 16.5952 111.92C16.5147 111.955 16.4283 111.974 16.3405 111.977L-nan -nanZ" fill="#B9E5EE"/>
<path d="M-nan -nanL155.765 82.2809C155.64 82.2867 155.517 82.2598 155.406 82.203C153.692 81.4469 152.101 80.4376 150.687 79.2089C149.278 77.8834 148.239 76.0485 148.291 74.1201C148.343 72.1916 149.71 70.2424 151.617 69.9305C152.531 69.8142 153.455 70.0488 154.202 70.5871C154.317 70.6698 154.426 70.7587 154.53 70.8532C154.908 71.198 156.402 71.2071 156.785 70.8688C157.367 70.3551 158.1 70.044 158.874 69.9819C159.648 69.9198 160.421 70.1102 161.078 70.5245C161.734 70.9388 162.239 71.5548 162.516 72.28C162.835 73.2119 162.857 74.22 162.578 75.1649C161.752 78.3149 158.987 80.6748 156.097 82.1978C155.994 82.2509 155.88 82.2793 155.765 82.2809L-nan -nanZ" fill="#B9E5EE"/>
<path opacity="0.38" d="M-nan -nanL175.671 22.7538C176.171 23.4861 176.443 24.3504 176.453 25.2374C176.463 26.1244 176.209 26.9943 175.724 27.7372C175.239 28.4801 174.545 29.0625 173.73 29.4109C172.914 29.7593 172.013 29.858 171.141 29.6945C170.27 29.5311 169.466 29.1127 168.832 28.4925C168.198 27.8722 167.762 27.0779 167.579 26.2098C167.396 25.3418 167.475 24.439 167.805 23.6157C168.135 22.7923 168.702 22.0854 169.434 21.5842C169.92 21.2506 170.467 21.0161 171.044 20.8943C171.62 20.7725 172.216 20.7657 172.795 20.8744C173.374 20.983 173.927 21.2049 174.42 21.5274C174.914 21.85 175.338 22.2667 175.671 22.7538L-nan -nanZ" fill="#FBFFFF"/>
<path opacity="0.29" d="Mnan nanL43.5954 13.7351C44.4981 15.0452 44.9917 16.5938 45.0136 18.1847C45.0354 19.7756 44.5846 21.3372 43.7182 22.6716C42.8518 24.0061 41.6088 25.0532 40.1468 25.6805C38.6848 26.3077 37.0694 26.4867 35.5056 26.1949C33.9417 25.9031 32.4996 25.1536 31.362 24.0413C30.2245 22.929 29.4427 21.5041 29.1157 19.947C28.7887 18.3899 28.9312 16.7707 29.5252 15.2947C30.1192 13.8187 31.1379 12.5523 32.4522 11.6559C34.2072 10.4589 36.3647 10.0057 38.4529 10.3954C40.541 10.785 42.39 11.9858 43.5954 13.7351Lnan nanLnan nanZ" stroke="#FBFFFF" stroke-width="1.13" stroke-miterlimit="10"/>
<path d="M127.99 1H49.5514C42.9552 1 37.6079 6.34795 37.6079 12.945V211.43C37.6079 218.027 42.9552 223.375 49.5514 223.375H127.99C134.586 223.375 139.933 218.027 139.933 211.43V12.945C139.933 6.34795 134.586 1 127.99 1Z" fill="white" stroke="#1D1D1B" stroke-miterlimit="10"/>
<path d="M127.185 6.30713H50.3574C46.069 6.30713 42.5925 9.78399 42.5925 14.0729V193.648C42.5925 197.937 46.069 201.414 50.3574 201.414H127.185C131.473 201.414 134.95 197.937 134.95 193.648V14.0729C134.95 9.78399 131.473 6.30713 127.185 6.30713Z" fill="#F0EFED"/>
<path d="M-nan -nanL101.11 215.069H76.4326C75.4824 215.069 74.571 214.692 73.8986 214.02C73.2262 213.349 72.8478 212.438 72.8464 211.487L-nan -nanL72.8464 211.487C72.8464 210.536 73.2243 209.624 73.8968 208.951C74.5693 208.279 75.4815 207.901 76.4326 207.901H101.11C102.061 207.901 102.973 208.279 103.645 208.951C104.318 209.624 104.696 210.536 104.696 211.487L-nan -nanL104.696 211.487C104.694 212.438 104.316 213.349 103.644 214.02C102.971 214.692 102.06 215.069 101.11 215.069L-nan -nanZ" fill="#F0EFED"/>
<path d="M63.4489 222.746C81.1563 226.988 99.4614 225.298 117.413 222.866C118.453 222.73 119.554 222.523 120.199 221.571C120.765 220.729 120.781 219.549 120.76 218.453C120.677 214.357 120.464 210.271 120.24 206.18L116.264 130.752C116.005 125.778 115.703 120.642 113.78 116.198C111.363 110.625 106.052 107.595 101.826 103.754C98.3751 100.599 91.92 100.677 86.6551 100.354C83.6458 100.172 78.5628 101.503 75.6731 102.522C71.3333 104.081 69.192 108.702 66.9675 113.396C64.9509 117.653 63.8023 122.409 62.742 127.134C59.2598 142.603 56.4584 158.385 55.9439 174.389C55.4294 190.394 57.2744 206.689 62.7524 221.317" fill="#53BBD3"/>
<path d="M72.3836 315.65C67.706 317.604 61.9889 311.923 55.7261 311.268C54.9516 311.185 54.3591 310.363 54.3695 309.386C55.0244 247.353 52.2126 189.588 54.8269 127.623C54.988 123.74 56.2458 120.938 57.488 117.367C59.3615 111.99 62.1103 108.612 65.5649 106.428C70.9529 103.021 76.8101 108.736 76.5804 115.106C74.4668 173.733 93.92 178.135 92.2479 244.682C92.2219 246.605 73.844 315.036 72.3836 315.65Z" fill="#FBFFFF"/>
<path d="M102.965 315.676C107.564 317.687 118.557 316.3 124.794 315.723C125.568 315.65 126.166 314.839 126.171 313.857C126.317 251.824 124.664 189.885 122.86 127.888C122.746 124.005 121.53 121.188 120.34 117.601C118.559 112.237 115.892 108.838 112.516 106.611C107.184 103.093 101.189 108.746 101.118 115.133C101.06 120.354 100.815 125.238 100.673 130.128C99.2279 180.071 85.3301 205.499 86.0682 266.087C86.0837 268.031 101.515 315.042 102.965 315.676Z" fill="#FBFFFF"/>
<path d="M90.7875 209.179C94.2438 184.712 97.5441 173.204 103.012 149.319C104.171 144.251 105.475 139.012 106.489 134.12C106.587 133.644 106.449 133.052 106.161 132.409C104.498 128.695 103.072 124.675 104.813 120.997C105.957 118.58 107.032 116.209 107.471 114.317C107.797 112.916 107.82 111.343 107.129 110.081C105.6 107.288 101.251 103.344 98.3757 101.95C98.1054 101.815 97.7832 102.043 97.6792 102.47C95.8549 109.685 96.3071 118.199 95.7562 125.705C93.3654 158.327 91.6711 174.264 90.5588 206.793" fill="#DCD9D8"/>
<path d="M90.7612 209.512C85.9848 185.268 81.2032 172.315 74.483 148.758C73.0538 143.757 71.4738 138.596 70.2056 133.767C70.0804 133.291 70.1897 132.684 70.4468 132.019C71.9065 128.239 73.1012 124.165 71.1795 120.598C69.9024 118.227 68.6942 115.898 68.1529 114.025C67.7573 112.656 67.6473 111.103 68.2586 109.816C69.6229 106.943 73.7532 102.757 76.5464 101.212C76.8115 101.066 77.1389 101.274 77.2688 101.695C79.4725 108.801 79.4829 117.331 80.434 124.795C84.5919 157.241 88.0534 173.62 90.9171 206.05" fill="#DCD9D8"/>
<path d="M118.438 166.311C121.769 180.346 125.818 198.591 130.147 212.35C130.189 212.553 130.253 212.749 130.337 212.935C130.648 213.619 131.325 214.111 132.075 214.16C132.253 214.172 132.432 214.164 132.611 214.138C133.234 214.108 133.856 214.058 134.476 213.989C138.907 213.497 141.549 209.171 141.068 204.739C138.665 182.595 133.807 161.616 129.602 139.495C128.354 132.93 125.963 127.919 121.624 121.11C119.835 118.311 124.241 121.555 120.642 120.852C118.805 120.493 116.946 121.702 116.946 123.573C116.946 123.811 116.914 124.049 116.851 124.279L113.98 134.794C113.683 135.883 113.572 137.014 113.652 138.139L113.926 141.973C113.94 142.172 113.96 142.369 113.987 142.566C114.244 144.439 115.739 154.946 118.438 166.311Z" fill="#DCD9D8"/>
<path d="M119.071 166.202C122.408 180.237 125.828 198.591 130.147 212.35C130.188 212.553 130.252 212.749 130.337 212.935C130.647 213.619 131.325 214.111 132.074 214.16C132.252 214.172 132.432 214.164 132.61 214.138C133.234 214.108 133.856 214.058 134.475 213.989C138.907 213.497 141.544 209.172 141.097 204.736C138.868 182.59 134.872 161.598 130.666 139.464C129.419 132.904 127.174 125.029 122.824 118.22C121.176 115.642 118.296 111.236 112.88 107.695C111.806 106.992 111.08 108.147 112.073 108.96C112.329 109.169 112.48 109.48 112.488 109.81L113.058 132.914L114.159 139.791C114.17 139.857 114.178 139.914 114.188 139.98C114.358 141.183 116.238 154.25 119.071 166.202Z" fill="#FBFFFF"/>
<path d="M56.9525 166.311C53.6158 180.346 49.5671 198.591 45.2377 212.35C45.205 212.52 45.1567 212.686 45.0938 212.845C44.7934 213.608 44.0465 214.158 43.2274 214.18C43.0818 214.183 42.9354 214.175 42.7897 214.154C42.1666 214.123 41.5453 214.074 40.9265 214.005C36.4941 213.512 33.8527 209.186 34.3345 204.753C36.7411 182.609 41.5978 161.632 45.799 139.511C47.0516 132.946 49.4371 127.935 53.7769 121.125C55.5678 118.324 51.1494 121.578 54.7709 120.865C56.6007 120.505 58.4546 121.71 58.4546 123.575C58.4546 123.812 58.4861 124.048 58.5482 124.277L61.4115 134.805C61.7076 135.893 61.8173 137.024 61.7361 138.149L61.459 141.988C61.4449 142.183 61.4251 142.378 61.3984 142.572C61.1431 144.433 59.6482 154.938 56.9525 166.311Z" fill="#DCD9D8"/>
<path d="M56.3132 166.202C52.9765 180.237 49.5567 198.591 45.2377 212.35C45.205 212.52 45.1567 212.686 45.0938 212.845C44.7934 213.608 44.0465 214.158 43.2274 214.18C43.0818 214.184 42.9354 214.175 42.7897 214.154C42.1666 214.123 41.5453 214.074 40.9265 214.005C36.4941 213.513 33.8571 209.187 34.3043 204.75C36.5364 182.605 40.5278 161.614 44.7335 139.479C45.9809 132.92 48.2262 125.045 52.5763 118.235C54.2242 115.657 57.1043 111.251 62.5201 107.71C63.5943 107.008 64.3204 108.163 63.3272 108.975C63.0714 109.185 62.9196 109.495 62.9115 109.826L62.3422 132.93L61.2399 139.811C61.2298 139.874 61.2217 139.928 61.2126 139.991C61.0451 141.165 59.1547 154.235 56.3132 166.202Z" fill="#FBFFFF"/>
<path d="M55.9282 158.744C55.9318 158.733 55.9335 158.722 55.9331 158.71C55.8126 154.989 55.9517 151.264 56.3494 147.562C56.5573 145.753 56.8692 143.95 57.2174 142.167C57.3465 141.395 57.52 140.631 57.7371 139.88C57.9807 139.163 58.2832 138.467 58.6415 137.801C58.965 137.161 59.3609 136.561 59.8213 136.012C60.3303 135.458 60.9476 135.014 61.6351 134.708C62.3737 134.35 63.1968 134.204 64.0133 134.286C64.8297 134.368 65.6076 134.674 66.2608 135.17C67.5581 136.263 68.4527 137.758 68.8023 139.417C69.2426 141.299 69.5448 143.21 69.7066 145.135C70.2044 149.573 70.3625 154.042 70.1796 158.504C70.1796 158.837 70.6993 158.837 70.6993 158.504C70.8736 154.299 70.7434 150.086 70.3095 145.899C70.1382 143.912 69.8572 141.935 69.4676 139.979C69.171 138.263 68.3984 136.665 67.2379 135.368C66.6985 134.789 66.0297 134.346 65.2863 134.075C64.5429 133.804 63.7459 133.713 62.9605 133.808C62.1833 133.929 61.4375 134.202 60.7659 134.611C60.0943 135.021 59.5102 135.559 59.0469 136.194C58.1638 137.414 57.5072 138.782 57.1083 140.233C56.6555 142.036 56.3084 143.864 56.0688 145.707C55.481 150.031 55.2585 154.397 55.4035 158.759C55.4035 158.828 55.4309 158.894 55.4796 158.943C55.5284 158.991 55.5945 159.019 55.6634 159.019C55.7323 159.019 55.7984 158.991 55.8471 158.943C55.8922 158.898 55.919 158.838 55.9228 158.774C55.9234 158.764 55.9249 158.754 55.9282 158.744Z" fill="#79838E"/>
<path d="M71.6351 159.356C71.6288 159.604 71.5492 159.845 71.4062 160.047C71.2632 160.25 71.0633 160.405 70.8318 160.494C70.6004 160.583 70.3478 160.601 70.106 160.546C69.8642 160.492 69.6441 160.366 69.4736 160.186C69.3031 160.006 69.1899 159.78 69.1482 159.535C69.1065 159.291 69.1383 159.04 69.2395 158.813C69.3407 158.587 69.5069 158.396 69.7168 158.264C69.9268 158.132 70.1711 158.065 70.4189 158.073C70.7498 158.083 71.063 158.224 71.2907 158.465C71.5184 158.705 71.6421 159.025 71.6351 159.356Z" fill="#79838E"/>
<path d="M64.1909 120.752L63.8381 120.732C63.2191 120.697 62.6887 121.17 62.6534 121.789L62.2122 129.537C62.1769 130.156 62.6501 130.687 63.2691 130.722L63.622 130.742C64.241 130.777 64.7714 130.304 64.8066 129.685L65.2479 121.937C65.2832 121.318 64.81 120.787 64.1909 120.752Z" fill="#79838E"/>
<path d="M56.9107 159.242C56.9045 159.49 56.8248 159.731 56.6818 159.933C56.5388 160.136 56.3389 160.291 56.1075 160.38C55.876 160.469 55.6234 160.487 55.3816 160.432C55.1398 160.378 54.9198 160.252 54.7493 160.072C54.5788 159.892 54.4655 159.666 54.4238 159.421C54.3822 159.177 54.4139 158.926 54.5152 158.699C54.6164 158.473 54.7825 158.282 54.9924 158.15C55.2024 158.018 55.4467 157.951 55.6946 157.959C55.8588 157.963 56.0207 157.999 56.1708 158.066C56.321 158.133 56.4564 158.228 56.5694 158.348C56.6825 158.467 56.7708 158.607 56.8294 158.761C56.8879 158.915 56.9156 159.078 56.9107 159.242Z" fill="#79838E"/>
<path d="M64.1611 133.85C64.1582 133.85 64.1559 133.848 64.1558 133.845C63.8337 123.45 63.7677 110.978 73.0226 104.144C75.1286 102.541 77.6354 101.55 80.2677 101.28C80.7875 101.233 80.7875 100.432 80.2677 100.479C75.4082 100.926 71.2815 103.853 68.423 107.699C65.0603 112.221 63.7765 117.809 63.3971 123.345C63.158 126.843 63.262 130.352 63.3711 133.85C63.3711 134.368 64.1763 134.37 64.1665 133.855C64.1664 133.853 64.164 133.85 64.1611 133.85Z" fill="#79838E"/>
<path d="M-nan -nanL117.366 142.396C117.366 143.077 117.164 143.744 116.786 144.31C116.407 144.877 115.869 145.319 115.239 145.58C114.609 145.841 113.917 145.909 113.248 145.776C112.58 145.643 111.966 145.315 111.484 144.833C111.002 144.351 110.674 143.737 110.541 143.068C110.408 142.4 110.476 141.707 110.737 141.077C110.998 140.447 111.439 139.909 112.006 139.53C112.573 139.152 113.239 138.949 113.92 138.949C114.834 138.949 115.711 139.313 116.357 139.959C117.003 140.605 117.366 141.482 117.366 142.396L-nan -nanZ" fill="#79838E"/>
<path d="M93.9992 101.144C93.9992 101.142 94.0016 101.139 94.0044 101.14C99.4177 101.708 103.901 105.585 106.577 110.142C109.695 115.46 110.865 121.728 111.883 127.727C112.528 131.49 113.022 135.273 113.365 139.074C113.411 139.594 114.212 139.594 114.165 139.074C113.616 132.214 112.5 125.411 110.828 118.734C109.331 113.069 106.821 107.455 102.102 103.754C99.7764 101.877 96.9672 100.696 93.9992 100.349C93.4812 100.297 93.4794 101.087 93.9939 101.149C93.9966 101.149 93.9992 101.147 93.9992 101.144Z" fill="#79838E"/>
<path opacity="0.75" d="M115.439 142.422C115.439 142.717 115.351 143.005 115.187 143.25C115.023 143.496 114.79 143.687 114.518 143.8C114.245 143.913 113.945 143.942 113.656 143.885C113.367 143.827 113.101 143.685 112.892 143.476C112.684 143.268 112.542 143.002 112.484 142.713C112.426 142.423 112.456 142.123 112.569 141.851C112.682 141.578 112.873 141.345 113.118 141.181C113.364 141.017 113.652 140.93 113.947 140.93C114.143 140.929 114.337 140.967 114.519 141.042C114.7 141.117 114.865 141.226 115.003 141.365C115.142 141.504 115.252 141.668 115.326 141.85C115.401 142.031 115.439 142.225 115.439 142.422Z" fill="#FBFFFF"/>
<path d="M91.9881 111.681C93.4748 111.304 94.7741 110.4 95.6442 109.137C96.5142 107.874 96.8957 106.337 96.7177 104.814C96.1512 100.032 95.6055 93.4252 95.6782 90.6651C95.7094 89.2824 95.7094 87.8946 95.6782 86.5067C95.6846 86.4056 95.6824 86.3046 95.6719 86.2046C95.6293 85.7991 95.4105 85.3708 95.013 85.28C93.2095 84.7186 91.3748 85.9401 89.5869 86.3975C87.3677 86.9537 85.0652 86.3559 82.8304 86.803C82.6817 86.8165 82.5387 86.8662 82.4137 86.9478C82.1652 87.1098 82.0446 87.4084 82.008 87.7028C81.9997 87.7698 81.9949 87.8372 81.9936 87.9049C81.4647 93.3466 80.6493 98.7565 79.5509 104.112C79.2355 105.613 79.4745 107.177 80.2237 108.515C80.9729 109.853 82.1814 110.874 83.6256 111.389L85.7877 112.154C86.9703 112.573 88.2509 112.633 89.4674 112.325L91.9881 111.681Z" fill="#F7B094"/>
<path d="M-nan -nanL95.7404 84.3704C95.6184 84.1938 95.4316 84.0724 95.2207 84.0325C93.4172 83.4763 91.6137 84.6978 89.7947 85.1553C87.5754 85.7115 85.2782 85.1085 83.0381 85.5607C82.8892 85.5734 82.7458 85.6227 82.6206 85.7043C82.3719 85.8666 82.2522 86.1663 82.2157 86.461C82.2074 86.5278 82.2026 86.5951 82.2013 86.6627C82.1663 87.1019 82.1185 87.533 82.063 87.9592C81.6411 91.1972 82.7466 94.6636 85.8523 95.6722C86.5227 95.8899 87.1921 96.0315 87.8405 96.0762C90.2919 96.242 92.8302 95.1468 94.7057 92.9952C95.5532 92.023 95.8548 90.7178 95.8548 89.428C95.8548 88.0621 95.885 86.7012 95.8562 85.3355C95.8553 85.2916 95.8581 85.2478 95.8622 85.2042C95.8892 84.9208 95.8476 84.6348 95.7404 84.3704L-nan -nanZ" fill="#E89C82"/>
<path d="M-nan -nanL96.7176 104.814C96.5884 103.718 96.4601 102.527 96.3398 101.309C96.1036 98.9181 93.6401 97.4495 91.3124 98.043C89.8303 98.421 88.3203 98.6456 86.7906 98.6128C83.8457 98.575 80.3333 100.097 79.7667 102.988C79.6924 103.366 79.6169 103.743 79.5403 104.117C79.2544 105.629 79.4952 107.193 80.2225 108.548C80.9498 109.904 82.1197 110.969 83.5371 111.566L84.5038 111.961C85.3062 112.3 86.1568 112.51 87.0245 112.585C87.9241 112.652 88.8275 112.652 89.7271 112.585C90.0887 112.548 90.4467 112.482 90.7978 112.387L91.5878 112.169C92.0793 112.046 92.5566 111.872 93.0119 111.649C94.2749 111.051 95.3148 110.066 95.981 108.837C96.6472 107.608 96.9052 106.199 96.7176 104.814L-nan -nanZ" fill="#5BC6D8"/>
<path d="M74.9666 88.6535C67.1134 86.5067 62.0771 77.5662 64.4419 70.0343C64.9617 68.3501 65.8244 66.7544 66.1674 65.0234C66.9886 60.865 64.8369 56.1868 66.9418 52.4599C69.2547 48.3535 75.1017 47.974 79.3272 45.7025C81.6088 44.4758 83.5214 42.5837 85.9746 41.7364C91.832 39.6572 97.8765 43.9196 102.559 47.8961C105.257 50.1832 108.053 52.6054 109.347 55.8386C110.517 58.765 110.319 62.019 110.906 65.1066C111.265 67.0143 111.92 68.8595 112.258 70.7724C112.686 73.342 112.539 75.9749 111.825 78.4804C111.111 80.9859 109.849 83.3013 108.131 85.2592C106.343 87.2349 104.158 88.8116 101.719 89.8863C99.2809 90.9611 96.6433 91.5098 93.9785 91.4968" fill="#38303B"/>
<path d="M103.744 73.3248C103.744 85.3426 95.4546 95.0836 88.0639 95.0836C80.6733 95.0836 72.3887 85.3426 72.3887 73.3248C72.3887 61.3071 76.9312 55.4333 88.5836 55.4333C99.3266 55.4333 103.744 61.3123 103.744 73.3248Z" fill="#F7B094"/>
<path d="M102.887 78.0081C104.82 77.4207 106.488 75.7417 106.65 73.7249C106.811 71.7081 105.09 69.6289 103.079 69.7536" fill="#F7B094"/>
<path d="M73.7349 78.0081C71.8015 77.4207 70.1279 75.7417 69.972 73.7249C69.8161 71.7081 71.5312 69.6289 73.5426 69.7536" fill="#F7B094"/>
<path d="M80.9071 71.3754C80.9071 72.5814 80.3874 73.5638 79.7117 73.5638C79.0361 73.5638 78.5164 72.5814 78.5164 71.3754C78.5164 70.1695 79.0361 69.1819 79.7117 69.1819C80.3874 69.1819 80.9071 70.1643 80.9071 71.3754Z" fill="#38303B"/>
<path d="M96.4367 71.2611C96.4367 72.4722 95.9169 73.4546 95.2413 73.4546C94.5656 73.4546 94.0459 72.4722 94.0459 71.2611C94.0459 70.05 94.5656 69.0728 95.2413 69.0728C95.9169 69.0728 96.4367 70.0552 96.4367 71.2611Z" fill="#38303B"/>
<path d="M82.5671 69.6498C82.5623 69.6498 82.5577 69.6485 82.5536 69.646C81.6827 69.1114 80.67 68.8535 79.6493 68.9065C78.6772 68.8554 77.7147 69.1197 76.9051 69.6602C76.7232 69.8109 76.983 70.0708 77.165 69.9253C77.9372 69.4311 78.8497 69.203 79.7636 69.2755C80.6876 69.2415 81.601 69.482 82.3883 69.9668C82.5783 70.1055 82.7632 69.7977 82.5822 69.6549C82.5779 69.6515 82.5725 69.6498 82.5671 69.6498Z" fill="#38303B"/>
<path d="M92.7391 70.0085C92.7407 70.0085 92.7422 70.0081 92.7435 70.0072C93.5184 69.5136 94.4215 69.2592 95.3402 69.2756C96.2487 69.1918 97.16 69.4033 97.9388 69.8786C98.1259 70.0241 98.3858 69.7642 98.1987 69.6187C97.3839 69.089 96.4188 68.8391 95.4493 68.9066C94.4254 68.8686 93.4142 69.1423 92.5492 69.6915C92.3628 69.8312 92.5477 70.1514 92.734 70.0103C92.7354 70.0092 92.7373 70.0085 92.7391 70.0085Z" fill="#38303B"/>
<path d="M-nan -nanL86.9258 69.6914C86.6209 72.1553 86.3125 74.6191 86.0007 77.0829L85.7772 78.8711L85.6576 79.8275C85.5923 80.0978 85.5678 80.3764 85.5849 80.654C85.6836 81.1738 86.2086 81.0854 86.5932 81.075L88.4642 81.0178C88.7968 81.0178 88.802 80.498 88.4642 80.498L86.8426 80.55C86.7642 80.55 86.5829 80.5782 86.4176 80.5825C86.1853 80.5885 86.0775 80.3695 86.1358 80.1446L86.1826 79.7599C86.3229 78.6372 86.4684 77.5092 86.6088 76.3864C86.8859 74.1582 87.1649 71.9265 87.4455 69.6914C87.4871 69.3639 86.9674 69.3639 86.9258 69.6914L-nan -nanZ" fill="#E89C82"/>
<path d="M83.6772 64.8105C83.7967 64.878 83.6772 65.0132 83.5109 65.034C83.3499 65.0416 83.1891 65.0168 83.0379 64.9612C81.1084 64.4232 79.0684 64.4232 77.1389 64.9612C76.8579 65.0638 76.5641 65.1267 76.2657 65.1483C76.0197 65.1483 75.758 65.0763 75.6459 64.9566C75.5866 64.8934 75.5861 64.7941 75.627 64.7177C75.6475 64.6792 75.6756 64.6454 75.7096 64.6181C76.0754 64.3 76.5149 64.0784 76.9882 63.9736C78.7259 63.4915 80.5637 63.5041 82.2947 64.01C82.8504 64.1349 83.3546 64.427 83.7395 64.8469" fill="#38303B"/>
<path d="M91.2709 64.8103C91.1513 64.8779 91.2709 65.0131 91.4372 65.0338C91.5998 65.041 91.7622 65.0163 91.9153 64.9611C93.8431 64.4232 95.8813 64.4232 97.8091 64.9611C98.0917 65.0642 98.3874 65.1271 98.6875 65.1482C98.9291 65.1482 99.1926 65.0764 99.3038 64.957C99.3629 64.8936 99.362 64.794 99.3211 64.7175C99.3005 64.6791 99.2724 64.6453 99.2384 64.618C98.8727 64.2999 98.4331 64.0783 97.9599 63.9735C96.2239 63.4916 94.3878 63.5042 92.6586 64.0099C92.1013 64.1348 91.5955 64.4267 91.2085 64.8467" fill="#38303B"/>
<path d="M93.443 84.121C91.3121 87.4841 89.0512 88.5133 86.1095 87.6244C84.366 87.0925 85.6634 85.3662 87.4822 85.4871C89.5067 85.6217 91.5243 85.1252 93.4898 83.9131" fill="#E66E60"/>
<path d="M93.4518 84.1114C93.4459 84.1177 93.4394 84.1234 93.4323 84.1283C91.0696 85.765 88.2399 86.2765 84.4256 85.2644C83.5881 85.0928 83.9968 84.3314 84.8392 84.4765C87.6617 84.9629 90.5706 84.7737 93.3231 83.9107C93.4419 83.8734 93.5365 84.0201 93.4518 84.1114Z" fill="white"/>
<path opacity="0.28" d="M78.194 83.9183C80.0999 83.9183 81.645 82.373 81.645 80.4668C81.645 78.5607 80.0999 77.0154 78.194 77.0154C76.288 77.0154 74.7429 78.5607 74.7429 80.4668C74.7429 82.373 76.288 83.9183 78.194 83.9183Z" fill="#E66E60"/>
<path opacity="0.28" d="M-nan -nanL93.6614 80.4668C93.6614 81.1495 93.8638 81.8168 94.243 82.3844C94.6222 82.952 95.1612 83.3943 95.7918 83.6556C96.4224 83.9168 97.1162 83.9852 97.7857 83.852C98.4551 83.7188 99.07 83.3901 99.5527 82.9074C100.035 82.4247 100.364 81.8097 100.497 81.1402C100.63 80.4707 100.562 79.7767 100.301 79.146C100.04 78.5154 99.5972 77.9763 99.0297 77.5971C98.4622 77.2178 97.795 77.0154 97.1124 77.0154C96.1971 77.0154 95.3194 77.379 94.6722 78.0263C94.025 78.6736 93.6614 79.5515 93.6614 80.4668L-nan -nanZ" fill="#E66E60"/>
<path d="M84.5924 44.7409C83.3866 45.4427 81.8274 44.9229 80.6528 44.1848C79.5601 43.5726 78.6956 42.6222 78.1892 41.4766C77.7579 40.3175 78.0073 38.836 79.0208 38.1239C79.7536 37.6041 80.8243 37.4949 81.2401 36.7049C81.6559 35.9148 81.0582 34.8544 80.9127 33.8979C80.8727 33.4574 80.9331 33.0135 81.0893 32.5996C81.2455 32.1858 81.4936 31.8127 81.8147 31.5085C82.1359 31.2043 82.5218 30.9769 82.9435 30.8434C83.108 30.7913 83.2762 30.754 83.4462 30.7317C83.9779 30.662 84.5038 30.83 85.0273 30.9465C85.1743 30.9792 85.3222 31.0083 85.4707 31.0338C86.5622 31.1014 87.4301 30.1658 88.4644 29.8175C89.8885 29.3393 91.4945 30.0618 92.482 31.195C92.8453 31.6119 93.1432 32.0739 93.3987 32.5615C94.0077 33.7235 96.18 34.6005 96.9465 35.6653C97.5078 36.445 97.5598 37.469 97.5962 38.4306C97.6326 39.3922 97.6897 40.411 98.2458 41.1959C98.5109 41.5754 98.9111 41.9496 98.8487 42.407C98.7864 42.8645 98.3966 43.0776 98.0327 43.2699C95.7622 44.4921 93.2843 45.2817 90.7253 45.5986" fill="#38303B"/>
<path d="M86.0212 54.0715C86.8112 56.317 89.0357 57.7101 91.1043 58.864C93.3902 60.17 95.764 61.498 98.229 62.414C101.902 63.7792 105.338 60.3468 103.307 56.9956C102.107 55.0168 100.342 53.4425 98.2402 52.4757C97.2008 52.0235 95.9066 51.5244 95.7247 50.3965" fill="#38303B"/>
<path d="M70.9126 64.5972C77.5756 64.5505 83.6669 60.3453 87.5961 54.9654C87.8734 54.6596 88.0808 54.3012 88.2082 53.9151C88.3871 53.3732 88.3594 52.7637 88.0802 52.266C87.9669 52.064 87.8234 51.8786 87.6533 51.7166C86.198 50.1572 83.8592 49.6634 81.7595 50.0169C79.6598 50.3704 77.7627 51.4671 76.0424 52.6991" fill="#38303B"/>
<path d="M99.6479 75.0431C101.81 72.8812 101.81 69.3761 99.6479 67.2142C97.4863 65.0523 93.9816 65.0523 91.82 67.2142C89.6583 69.3761 89.6583 72.8812 91.82 75.0431C93.9816 77.205 97.4863 77.205 99.6479 75.0431Z" stroke="#38303B" stroke-width="0.71" stroke-miterlimit="10"/>
<path d="M83.7617 75.0463C85.9233 72.8844 85.9233 69.3793 83.7617 67.2174C81.6001 65.0555 78.0954 65.0555 75.9337 67.2174C73.7721 69.3793 73.7721 72.8844 75.9337 75.0463C78.0954 77.2082 81.6001 77.2082 83.7617 75.0463Z" stroke="#38303B" stroke-width="0.71" stroke-miterlimit="10"/>
<path d="M85.5224 71.2769C85.8339 70.9877 86.2005 70.7642 86.6002 70.6197C87 70.4752 87.4248 70.4128 87.8492 70.4361C88.2736 70.4594 88.689 70.5679 89.0706 70.7552C89.4521 70.9426 89.7921 71.2048 90.0701 71.5264C90.2208 71.7135 90.4807 71.4484 90.3299 71.2665C90.0176 70.911 89.637 70.6219 89.2109 70.4163C88.7847 70.2107 88.3216 70.0927 87.849 70.0695C87.3764 70.0462 86.904 70.1181 86.4597 70.2808C86.0154 70.4436 85.6083 70.6939 85.2625 71.017C85.091 71.1781 85.3509 71.438 85.5224 71.2769Z" fill="#38303B"/>
<path d="M101.458 70.8662L104.025 69.5719C104.238 69.4679 104.025 69.1508 103.838 69.2548L101.27 70.5491C101.063 70.6582 101.27 70.9753 101.458 70.8662Z" fill="#38303B"/>
<path d="M-nan -nanL74.4052 70.7048L72.0456 69.0779C71.8533 68.9427 71.6662 69.265 71.8637 69.4001L74.2181 71.0271C74.4156 71.1623 74.5975 70.84 74.4052 70.7048L-nan -nanZ" fill="#38303B"/>
<path d="M-nan -nanL35.4408 55.7245C39.6625 55.4555 43.8586 56.5518 47.4093 58.8514C50.9601 61.151 53.677 64.5318 55.1587 68.4945C56.6405 72.4571 56.8084 76.7914 55.6377 80.8568C54.4975 84.8165 52.1464 88.3166 48.9183 90.8683C48.7479 91.003 48.6208 91.1923 48.4428 91.317C48.3523 91.3803 48.2476 91.4207 48.138 91.4346L-nan -nanL48.138 91.4346L51.1628 101.779C51.1972 101.91 51.1864 102.05 51.1321 102.175C51.0778 102.3 50.9832 102.403 50.8634 102.467C50.7436 102.532 50.6056 102.555 50.4714 102.532C50.3372 102.508 50.2147 102.441 50.1234 102.34L44.2133 96.9679C42.5264 95.4345 40.1848 94.9363 37.9096 95.0784C35.3177 95.2553 32.7164 94.9181 30.2553 94.0862C27.7941 93.2543 25.5216 91.944 23.5685 90.2308C21.6154 88.5176 20.0201 86.4351 18.8744 84.1032C17.7287 81.7713 17.0551 79.2359 16.8924 76.6428C16.7298 74.0496 17.0812 71.4499 17.9265 68.9931C18.7718 66.5362 20.0943 64.2707 21.818 62.3267C23.5418 60.3828 25.6327 58.7988 27.9705 57.6657C30.3084 56.5327 32.8472 55.8729 35.4408 55.7245L-nan -nanZ" fill="white"/>
<path d="M47.4093 58.8514C43.8586 56.5518 39.6625 55.4555 35.4408 55.7245Lnan nanLnan nanL35.4408 55.7245C32.8472 55.8729 30.3084 56.5327 27.9705 57.6657C25.6327 58.7988 23.5418 60.3828 21.818 62.3267C20.0943 64.2707 18.7718 66.5362 17.9265 68.9931C17.0812 71.4499 16.7298 74.0496 16.8924 76.6428C17.0551 79.2359 17.7287 81.7713 18.8744 84.1032C20.0201 86.4351 21.6154 88.5176 23.5685 90.2308C25.5216 91.944 27.7941 93.2543 30.2553 94.0862C32.7164 94.9181 35.3177 95.2553 37.9096 95.0784V95.0784C40.1848 94.9363 42.5264 95.4345 44.2133 96.9679L50.1234 102.34C50.2147 102.441 50.3372 102.508 50.4714 102.532C50.6056 102.555 50.7436 102.532 50.8634 102.467C50.9832 102.403 51.0778 102.3 51.1321 102.175C51.1864 102.05 51.1972 101.91 51.1629 101.779L48.138 91.4346Lnan nanLnan nanL48.138 91.4346C48.2476 91.4207 48.3523 91.3803 48.4428 91.317V91.317C48.6208 91.1923 48.7479 91.003 48.9183 90.8683C52.1464 88.3166 54.4975 84.8165 55.6377 80.8568C56.8084 76.7914 56.6405 72.4571 55.1587 68.4945C53.677 64.5318 50.9601 61.151 47.4093 58.8514Z" stroke="#1D1D1B" stroke-miterlimit="10"/>
<path opacity="0.38" d="M46.2765 79.9266C48.9333 74.6112 46.7786 68.1483 41.4639 65.4912C36.1492 62.8341 29.687 64.989 27.0302 70.3044C24.3735 75.6198 26.5282 82.0827 31.8429 84.7398C37.1576 87.3969 43.6198 85.242 46.2765 79.9266Z" fill="#53BBD3"/>
<path d="M42.4444 75.3611C42.4487 74.8363 42.0272 74.4071 41.5024 74.402L40.0314 74.3878C38.696 74.3749 37.624 73.2819 37.6369 71.9466L37.6511 70.4776C37.6561 69.9518 37.2336 69.5216 36.7078 69.5173C36.183 69.513 35.7539 69.9345 35.7489 70.4592L35.7346 71.9313C35.7217 73.2665 34.6289 74.3384 33.2937 74.3255L31.8246 74.3113C31.299 74.3062 30.869 74.7286 30.8647 75.2542C30.8604 75.7791 31.2824 76.2082 31.8073 76.2127L33.2745 76.2253C34.6113 76.2368 35.6852 77.3305 35.6723 78.6672L35.6581 80.1382C35.653 80.664 36.0756 81.0942 36.6014 81.0985C37.1261 81.1028 37.5552 80.6813 37.5603 80.1565L37.5745 78.6845C37.5874 77.3493 38.6803 76.2774 40.0155 76.2903L41.484 76.3045C42.0099 76.3096 42.4401 75.887 42.4444 75.3611Z" fill="#53BBD3"/>
<path d="M138.665 12.6956C133.317 12.696 128.111 14.415 123.814 17.5993C119.517 20.7836 116.357 25.2646 114.8 30.3814C113.243 35.4982 113.371 40.9801 115.166 46.0185C116.915 50.9298 120.158 55.1664 124.434 58.1371C124.652 58.2889 124.82 58.5115 125.044 58.6554C125.158 58.7286 125.288 58.7735 125.422 58.7862C125.438 58.7862 125.45 58.801 125.447 58.8166L122.45 72.0827C122.427 72.244 122.457 72.4082 122.534 72.5516C122.611 72.6951 122.732 72.8103 122.879 72.8808C123.025 72.9513 123.191 72.9735 123.351 72.944C123.511 72.9145 123.658 72.835 123.77 72.7168L130.303 66.0083C132.651 63.5964 136.065 62.674 139.431 62.5878C141.098 62.5452 142.762 62.3352 144.396 61.9585C147.788 61.1763 150.98 59.6927 153.765 57.6028C156.55 55.513 158.866 52.8633 160.566 49.8242C162.265 46.7851 163.31 43.4239 163.632 39.9568C163.955 36.4897 163.548 32.9935 162.438 29.693C161.329 26.3926 159.54 23.361 157.189 20.7932C154.837 18.2255 151.974 16.1785 148.784 14.7839C145.594 13.3892 142.147 12.6779 138.665 12.6956Z" fill="white" stroke="#1D1D1B" stroke-miterlimit="10"/>
<path opacity="0.38" d="M154.574 28.7039L139.631 20.1065C138.665 19.5511 137.433 19.8835 136.877 20.849L123.593 43.9451C123.037 44.9106 123.37 46.1435 124.335 46.6989L139.279 55.2963C140.244 55.8518 141.477 55.5193 142.032 54.5538L155.317 31.4578C155.872 30.4923 155.54 29.2593 154.574 28.7039Z" fill="#53BBD3"/>
<path d="M146.587 28.4556C146.722 28.7967 146.753 29.1701 146.676 29.5289C146.599 29.8876 146.418 30.2155 146.154 30.4711C145.891 30.7267 145.558 30.8986 145.197 30.9649C144.837 31.0313 144.464 30.9892 144.127 30.844C143.79 30.6988 143.504 30.4569 143.305 30.149C143.105 29.8411 143.001 29.481 143.007 29.1141C143.012 28.7472 143.125 28.3901 143.333 28.0879C143.541 27.7856 143.834 27.5518 144.175 27.416C144.402 27.3257 144.644 27.281 144.888 27.2844C145.131 27.2877 145.372 27.3392 145.596 27.4357C145.82 27.5323 146.023 27.6721 146.193 27.8471C146.363 28.0221 146.497 28.2289 146.587 28.4556Z" fill="#53BBD3"/>
<path d="M135.905 33.425C136.93 33.425 137.761 32.5942 137.761 31.5693C137.761 30.5444 136.93 29.7136 135.905 29.7136C134.881 29.7136 134.05 30.5444 134.05 31.5693C134.05 32.5942 134.881 33.425 135.905 33.425Z" fill="#53BBD3"/>
<path d="M147.047 39.7442C148.071 39.7178 148.88 38.8658 148.854 37.8412C148.827 36.8167 147.975 36.0076 146.951 36.0341C145.926 36.0606 145.117 36.9126 145.144 37.9371C145.17 38.9616 146.022 39.7707 147.047 39.7442Z" fill="#53BBD3"/>
<path d="M-nan -nanL140.24 39.6002C140.375 39.9413 140.407 40.3148 140.33 40.6735C140.253 41.0323 140.071 41.3602 139.808 41.6158C139.545 41.8714 139.212 42.0432 138.851 42.1096C138.49 42.1759 138.118 42.1338 137.781 41.9886C137.444 41.8434 137.158 41.6015 136.958 41.2936C136.759 40.9857 136.655 40.6256 136.66 40.2587C136.665 39.8919 136.779 39.5348 136.987 39.2325C137.195 38.9303 137.488 38.6965 137.829 38.5606C138.055 38.4696 138.297 38.4243 138.541 38.4274C138.785 38.4304 139.027 38.4818 139.251 38.5784C139.475 38.675 139.678 38.8151 139.847 38.9904C140.017 39.1658 140.151 39.3731 140.24 39.6002L-nan -nanZ" fill="#53BBD3"/>
<path d="M129.643 44.424C130.667 44.424 131.498 43.5932 131.498 42.5683C131.498 41.5435 130.667 40.7126 129.643 40.7126C128.618 40.7126 127.787 41.5435 127.787 42.5683C127.787 43.5932 128.618 44.424 129.643 44.424Z" fill="#53BBD3"/>
<g opacity="0.69">
<path opacity="0.69" d="M140.859 25.1968C140.994 25.5379 141.025 25.9114 140.948 26.2701C140.871 26.6288 140.69 26.9567 140.427 27.2123C140.163 27.4679 139.83 27.6398 139.47 27.7061C139.109 27.7725 138.736 27.7304 138.4 27.5852C138.063 27.44 137.776 27.1981 137.577 26.8902C137.377 26.5823 137.274 26.2222 137.279 25.8553C137.284 25.4885 137.398 25.1313 137.606 24.8291C137.813 24.5268 138.106 24.293 138.447 24.1572C138.674 24.0669 138.916 24.0222 139.16 24.0256C139.404 24.029 139.644 24.0804 139.868 24.177C140.092 24.2735 140.295 24.4133 140.465 24.5883C140.635 24.7633 140.769 24.9701 140.859 25.1968Z" fill="#FBFFFF"/>
<path opacity="0.69" d="M150.302 34.0768C151.326 34.0391 152.126 33.1782 152.088 32.1541C152.05 31.1299 151.189 30.3302 150.165 30.368C149.141 30.4057 148.342 31.2665 148.379 32.2907C148.417 33.3149 149.278 34.1145 150.302 34.0768Z" fill="#FBFFFF"/>
<path opacity="0.69" d="M143.475 35.0121C143.578 33.9923 142.835 33.0825 141.815 32.9798C140.795 32.8771 139.886 33.6205 139.783 34.6402C139.68 35.6599 140.424 36.5698 141.443 36.6725C142.463 36.7752 143.373 36.0318 143.475 35.0121Z" fill="#FBFFFF"/>
<path opacity="0.69" d="M132.864 38.876C133.888 38.8393 134.688 37.9793 134.652 36.9551C134.615 35.9309 133.755 35.1304 132.731 35.167C131.707 35.2037 130.906 36.0637 130.943 37.0879C130.98 38.1121 131.84 38.9127 132.864 38.876Z" fill="#FBFFFF"/>
<path opacity="0.69" d="M143.889 45.2041C144.913 45.2041 145.744 44.3732 145.744 43.3484C145.744 42.3235 144.913 41.4927 143.889 41.4927C142.864 41.4927 142.033 42.3235 142.033 43.3484C142.033 44.3732 142.864 45.2041 143.889 45.2041Z" fill="#FBFFFF"/>
<path opacity="0.69" d="M136.982 45.3234C137.117 45.6644 137.148 46.0379 137.071 46.3967C136.994 46.7554 136.813 47.0833 136.549 47.3389C136.286 47.5945 135.953 47.7663 135.592 47.8327C135.232 47.8991 134.859 47.857 134.522 47.7118C134.186 47.5665 133.899 47.3247 133.7 47.0168C133.5 46.7089 133.396 46.3487 133.402 45.9819C133.407 45.615 133.52 45.2579 133.728 44.9557C133.936 44.6534 134.229 44.4196 134.57 44.2838C134.796 44.1928 135.039 44.1475 135.283 44.1505C135.527 44.1536 135.768 44.2049 135.992 44.3015C136.216 44.3982 136.419 44.5382 136.589 44.7136C136.759 44.889 136.892 45.0962 136.982 45.3234Z" fill="#FBFFFF"/>
<path opacity="0.69" d="M142.466 49.2574C142.569 48.2377 141.826 47.3279 140.806 47.2252C139.786 47.1225 138.877 47.8659 138.774 48.8856C138.671 49.9053 139.415 50.8152 140.434 50.9179C141.454 51.0205 142.364 50.2771 142.466 49.2574Z" fill="#FBFFFF"/>
</g>
</svg>
