<svg width="24" height="24" viewBox="0 0 24 24" fill="none" xmlns="http://www.w3.org/2000/svg">
<g clip-path="url(#clip0_12749_14)">
<path d="M18.9674 14.8672C18.4761 14.3556 17.8835 14.082 17.2554 14.082C16.6323 14.082 16.0346 14.3505 15.523 14.8621L13.9223 16.4577C13.7906 16.3868 13.6589 16.3209 13.5323 16.2551C13.35 16.1639 13.1777 16.0778 13.0308 15.9866C11.5315 15.0343 10.1689 13.7933 8.86204 12.1876C8.22887 11.3873 7.80338 10.7136 7.49439 10.0298C7.90975 9.64985 8.29472 9.25476 8.66956 8.87485C8.81139 8.73302 8.95322 8.58613 9.09505 8.4443C10.1588 7.38057 10.1588 6.00279 9.09505 4.93906L7.7122 3.55622C7.55518 3.39919 7.39309 3.2371 7.24113 3.07501C6.9372 2.76096 6.61809 2.43677 6.28884 2.13285C5.7975 1.64658 5.20991 1.38824 4.59194 1.38824C3.97397 1.38824 3.37625 1.64658 2.86972 2.13285C2.86465 2.13792 2.86465 2.13792 2.85959 2.14298L1.13736 3.8804C0.488995 4.52877 0.119223 5.31897 0.0381772 6.2358C-0.0833915 7.71489 0.35223 9.09266 0.686544 9.9943C1.50713 12.2079 2.73295 14.2593 4.56155 16.4577C6.78018 19.1069 9.44962 21.1989 12.499 22.6729C13.664 23.225 15.2191 23.8785 16.9565 23.9899C17.0629 23.995 17.1743 24 17.2756 24C18.4457 24 19.4284 23.5796 20.1983 22.7438C20.2034 22.7337 20.2135 22.7286 20.2186 22.7185C20.482 22.3994 20.7859 22.1107 21.105 21.8017C21.3228 21.594 21.5457 21.3762 21.7635 21.1482C22.265 20.6265 22.5284 20.0187 22.5284 19.3956C22.5284 18.7675 22.2599 18.1647 21.7483 17.6582L18.9674 14.8672ZM20.7808 20.201C20.7758 20.201 20.7758 20.2061 20.7808 20.201C20.5833 20.4138 20.3807 20.6062 20.1629 20.819C19.8336 21.133 19.4993 21.4623 19.1853 21.8321C18.6737 22.3791 18.0709 22.6374 17.2807 22.6374C17.2047 22.6374 17.1237 22.6374 17.0477 22.6324C15.5433 22.5361 14.1452 21.9486 13.0967 21.4471C10.2297 20.0592 7.7122 18.0888 5.62021 15.5915C3.89292 13.5097 2.73802 11.5848 1.97315 9.51815C1.50207 8.25688 1.32985 7.2742 1.40583 6.34724C1.45648 5.75459 1.68442 5.26325 2.10485 4.84282L3.83214 3.11553C4.08034 2.88253 4.34374 2.75589 4.60207 2.75589C4.92119 2.75589 5.17952 2.94838 5.34161 3.11047C5.34668 3.11553 5.35174 3.1206 5.35681 3.12566C5.6658 3.41439 5.95959 3.71325 6.26858 4.03237C6.4256 4.19446 6.58769 4.35655 6.74978 4.52371L8.13263 5.90655C8.66956 6.44348 8.66956 6.93988 8.13263 7.47681C7.98573 7.62371 7.8439 7.7706 7.69701 7.91243C7.27152 8.34805 6.86629 8.75328 6.4256 9.14838C6.41547 9.15851 6.40534 9.16358 6.40028 9.17371C5.96465 9.60933 6.0457 10.0348 6.13688 10.3235C6.14194 10.3387 6.14701 10.3539 6.15207 10.3691C6.51171 11.2404 7.01825 12.061 7.78818 13.0386L7.79325 13.0436C9.19129 14.7659 10.6653 16.1082 12.2913 17.1365C12.499 17.2682 12.7117 17.3745 12.9143 17.4758C13.0967 17.567 13.2689 17.6531 13.4158 17.7443C13.4361 17.7544 13.4563 17.7696 13.4766 17.7798C13.6488 17.8659 13.8109 17.9064 13.9781 17.9064C14.3985 17.9064 14.6619 17.643 14.748 17.5569L16.4803 15.8245C16.6526 15.6523 16.9261 15.4446 17.2452 15.4446C17.5593 15.4446 17.8176 15.6422 17.9746 15.8144C17.9797 15.8195 17.9797 15.8195 17.9848 15.8245L20.7758 18.6155C21.2975 19.1322 21.2975 19.6641 20.7808 20.201Z" fill="#56CCF2"/>
<path d="M12.9701 5.70896C14.2972 5.93183 15.5028 6.55994 16.4652 7.52236C17.4276 8.48478 18.0507 9.69034 18.2786 11.0175C18.3343 11.3518 18.6231 11.5848 18.9523 11.5848C18.9928 11.5848 19.0283 11.5797 19.0688 11.5747C19.4436 11.5139 19.6918 11.1593 19.6311 10.7845C19.3575 9.17873 18.5977 7.71484 17.4378 6.55487C16.2778 5.39491 14.8139 4.6351 13.2082 4.36157C12.8333 4.30079 12.4838 4.54899 12.418 4.91876C12.3521 5.28853 12.5953 5.64817 12.9701 5.70896Z" fill="#56CCF2"/>
<path d="M23.9721 10.5869C23.5213 7.94279 22.2752 5.53674 20.3605 3.62203C18.4458 1.70732 16.0397 0.461243 13.3956 0.0104253C13.0258 -0.0554245 12.6763 0.197844 12.6105 0.567615C12.5497 0.942452 12.7979 1.29196 13.1727 1.35781C15.5332 1.75798 17.686 2.87742 19.3981 4.58445C21.1101 6.29654 22.2245 8.44932 22.6247 10.8098C22.6804 11.1441 22.9691 11.3771 23.2984 11.3771C23.3389 11.3771 23.3744 11.372 23.4149 11.367C23.7847 11.3113 24.0379 10.9567 23.9721 10.5869Z" fill="#56CCF2"/>
</g>
<defs>
<clipPath id="clip0_12749_14">
<rect width="24" height="24" fill="white"/>
</clipPath>
</defs>
</svg>
