<svg width="26" height="26" viewBox="0 0 26 26" fill="none" xmlns="http://www.w3.org/2000/svg">
<path d="M18.332 8.42969C18.332 5.48189 15.9394 3.04688 13 3.04688C10.0644 3.04688 7.66797 5.47848 7.66797 8.42969C7.66797 11.3698 10.0599 13.7617 13 13.7617C15.9401 13.7617 18.332 11.3698 18.332 8.42969ZM9.19141 8.42969C9.19141 6.3016 10.8999 4.57031 13 4.57031C15.1001 4.57031 16.8086 6.3016 16.8086 8.42969C16.8086 10.5297 15.1001 12.2383 13 12.2383C10.8999 12.2383 9.19141 10.5297 9.19141 8.42969Z" fill="#56CCF2"/>
<path d="M21.3789 8.42969C21.3789 3.80798 17.6271 0 13 0C8.63205 0 4.62109 3.48959 4.62109 8.42969C4.62109 11.5098 7.63679 16.1642 9.42734 18.7218C7.43686 19.1218 4.62109 20.1549 4.62109 22.1914C4.62109 25.1037 10.0456 26 13 26C15.9547 26 21.3789 25.1037 21.3789 22.1914C21.3789 20.1548 18.5629 19.1218 16.5727 18.7218C18.354 16.1774 21.3789 11.5133 21.3789 8.42969ZM6.14453 8.42969C6.14453 4.16391 9.70303 1.52344 13 1.52344C16.7801 1.52344 19.8555 4.62155 19.8555 8.42969C19.8555 11.6555 15.348 18.0142 12.9999 20.98C10.6517 18.0149 6.14453 11.6575 6.14453 8.42969ZM19.8555 22.1914C19.8555 23.464 16.125 24.4766 13 24.4766C9.87914 24.4766 6.14453 23.4632 6.14453 22.1914C6.14453 21.5851 7.50527 20.5341 10.4142 20.0951C11.5252 21.6026 12.3614 22.6146 12.4135 22.6774C12.5582 22.8521 12.7732 22.9531 13 22.9531C13.2268 22.9531 13.4418 22.8521 13.5865 22.6774C13.6386 22.6146 14.4748 21.6026 15.5858 20.0951C18.4947 20.5341 19.8555 21.5851 19.8555 22.1914Z" fill="#56CCF2"/>
</svg>
