<svg width="14" height="14" viewBox="0 0 14 14" fill="none" xmlns="http://www.w3.org/2000/svg">
<path d="M6.90036 6.74385C7.82684 6.74385 8.629 6.41156 9.28461 5.75596C9.94 5.10045 10.2724 4.29841 10.2724 3.37182C10.2724 2.44555 9.94011 1.6434 9.2845 0.987684C8.62889 0.33229 7.82674 0 6.90036 0C5.97377 0 5.17172 0.33229 4.51622 0.987791C3.86072 1.64329 3.52832 2.44545 3.52832 3.37182C3.52832 4.29841 3.86072 5.10056 4.51622 5.75606C5.17194 6.41146 5.97409 6.74385 6.90036 6.74385ZM5.09642 1.56788C5.5994 1.06491 6.18942 0.820418 6.90036 0.820418C7.61119 0.820418 8.20132 1.06491 8.70441 1.56788C9.20738 2.07096 9.45198 2.6611 9.45198 3.37182C9.45198 4.08276 9.20738 4.67278 8.70441 5.17586C8.20132 5.67894 7.61119 5.92344 6.90036 5.92344C6.18964 5.92344 5.59961 5.67884 5.09642 5.17586C4.59334 4.67289 4.34874 4.08276 4.34874 3.37182C4.34874 2.6611 4.59334 2.07096 5.09642 1.56788Z" fill="#56CCF2"/>
<path d="M12.8004 10.7652C12.7815 10.4924 12.7433 10.1948 12.687 9.88059C12.6301 9.564 12.557 9.26472 12.4694 8.99118C12.3788 8.70845 12.2559 8.42924 12.1037 8.16168C11.9459 7.88397 11.7605 7.64215 11.5524 7.44316C11.3348 7.23498 11.0685 7.06761 10.7604 6.94553C10.4534 6.82408 10.1132 6.76256 9.74933 6.76256C9.60641 6.76256 9.4682 6.8212 9.20128 6.99498C9.037 7.10211 8.84485 7.22601 8.63037 7.36305C8.44698 7.4799 8.19853 7.58938 7.89166 7.68851C7.59227 7.78538 7.28828 7.83452 6.98814 7.83452C6.68822 7.83452 6.38423 7.78538 6.08463 7.68851C5.77808 7.58949 5.52953 7.48001 5.34645 7.36316C5.134 7.2274 4.94174 7.1035 4.77501 6.99487C4.5083 6.82109 4.37009 6.76245 4.22717 6.76245C3.86316 6.76245 3.52307 6.82408 3.2162 6.94563C2.90837 7.0675 2.64188 7.23488 2.42409 7.44327C2.21602 7.64236 2.03059 7.88408 1.87294 8.16168C1.72095 8.42924 1.5979 8.70834 1.50732 8.99128C1.41985 9.26483 1.34668 9.564 1.28986 9.88059C1.23346 10.1944 1.19533 10.4921 1.17642 10.7655C1.15784 11.0329 1.14844 11.3111 1.14844 11.5922C1.14844 12.323 1.38075 12.9147 1.83887 13.351C2.29132 13.7816 2.88989 13.9999 3.61803 13.9999H10.3591C11.087 13.9999 11.6856 13.7816 12.1382 13.351C12.5964 12.915 12.8287 12.3232 12.8287 11.5921C12.8286 11.31 12.8191 11.0318 12.8004 10.7652ZM11.5725 12.7566C11.2735 13.0411 10.8766 13.1795 10.359 13.1795H3.61803C3.10031 13.1795 2.7034 13.0411 2.40454 12.7567C2.11134 12.4776 1.96886 12.0966 1.96886 11.5922C1.96886 11.3299 1.97751 11.0709 1.99481 10.8222C2.01169 10.5783 2.04619 10.3103 2.09735 10.0255C2.14787 9.7443 2.21217 9.48037 2.28865 9.24143C2.36203 9.01232 2.46211 8.78546 2.58623 8.56692C2.70468 8.35864 2.84097 8.17994 2.99136 8.03596C3.13203 7.90127 3.30934 7.79104 3.51826 7.70837C3.71149 7.6319 3.92863 7.59003 4.16437 7.58372C4.1931 7.599 4.24426 7.62816 4.32715 7.6822C4.4958 7.79211 4.6902 7.91751 4.90511 8.05476C5.14735 8.20921 5.45946 8.34871 5.83234 8.46908C6.21355 8.59234 6.60234 8.65493 6.98825 8.65493C7.37416 8.65493 7.76306 8.59234 8.14406 8.46919C8.51726 8.3486 8.82925 8.20921 9.07182 8.05455C9.29175 7.91398 9.4807 7.79222 9.64935 7.6822C9.73224 7.62826 9.7834 7.599 9.81213 7.58372C10.048 7.59003 10.2651 7.6319 10.4585 7.70837C10.6673 7.79104 10.8446 7.90138 10.9852 8.03596C11.1356 8.17984 11.2719 8.35853 11.3904 8.56703C11.5146 8.78546 11.6148 9.01243 11.6881 9.24133C11.7646 9.48059 11.8291 9.74441 11.8795 10.0254C11.9305 10.3107 11.9651 10.5788 11.982 10.8223V10.8226C11.9994 11.0703 12.0082 11.3292 12.0083 11.5922C12.0082 12.0967 11.8657 12.4776 11.5725 12.7566Z" fill="#56CCF2"/>
</svg>
