<svg width="29" height="30" viewBox="0 0 29 30" fill="none" xmlns="http://www.w3.org/2000/svg">
<g clip-path="url(#clip0_12749_97)">
<path d="M24.0164 21.6174C23.7147 20.8392 23.5624 20.0189 23.5624 19.1803V13.125C23.5624 8.92457 20.86 5.40222 17.1725 4.21385C16.9533 2.88884 15.8424 1.875 14.5 1.875C13.1575 1.875 12.0466 2.88884 11.8275 4.21385C8.13999 5.40222 5.43752 8.92457 5.43752 13.125V19.1803C5.43752 20.0189 5.28529 20.8392 4.98351 21.6174L3.68959 24.9646C3.57805 25.2539 3.61259 25.5798 3.78072 25.838C3.94976 26.0962 4.23028 26.25 4.53121 26.25H11.4202C12.0628 27.3798 13.2089 28.125 14.5 28.125C15.7911 28.125 16.9372 27.3798 17.5797 26.25H24.4687C24.7696 26.25 25.0501 26.0962 25.2192 25.838C25.3873 25.5798 25.4218 25.2539 25.3103 24.9646C25.3104 24.9646 24.0164 21.6174 24.0164 21.6174ZM5.86935 24.375L6.66675 22.3132C7.05351 21.3134 7.24996 20.2588 7.24996 19.1802V13.125C7.24996 8.98859 10.5023 5.62494 14.5 5.62494C18.4976 5.62494 21.7499 8.98859 21.7499 13.125V19.1802C21.7499 20.2587 21.9464 21.3134 22.3331 22.3132L23.1305 24.375H5.86935Z" fill="#56CCF2"/>
<path d="M1.70718 7.94116C0.590277 10.1055 0 12.5462 0 14.9999C0 17.4535 0.590277 19.8943 1.70718 22.0586L3.3055 21.176C2.31519 19.2553 1.8125 17.177 1.8125 14.9999C1.8125 12.8228 2.31519 10.7445 3.3055 8.82371L1.70718 7.94116Z" fill="#56CCF2"/>
<path d="M27.2929 7.94116L25.6946 8.82371C26.6849 10.7445 27.1876 12.8227 27.1876 14.9999C27.1876 17.177 26.6849 19.2552 25.6946 21.176L27.2929 22.0586C28.4098 19.8943 29.0001 17.4535 29.0001 14.9999C29.0001 12.5463 28.4098 10.1055 27.2929 7.94116Z" fill="#56CCF2"/>
</g>
<defs>
<clipPath id="clip0_12749_97">
<rect width="29" height="30" fill="white"/>
</clipPath>
</defs>
</svg>
